<svg width="512" height="512" version="1.1" xmlns="http://www.w3.org/2000/svg" desc="Created with imagetracer.js version 1.2.6" ><path fill="rgb(46,49,146)" stroke="rgb(46,49,146)" stroke-width="1" opacity="0.9647058823529412" d="M 343.5 31 L 382.5 33 L 383.5 34 L 401.5 36 L 407 39.5 L 408 48.5 L 404.5 52 Q 384.3 59.8 367.5 71 L 352.5 81 L 329 100 Q 330.1 102.7 327.5 102 Q 294.4 132.9 275 177.5 L 266 203.5 L 266 207.5 L 262 221.5 L 261 235.5 L 260 236.5 L 260 247.5 L 259 248.5 L 259 266.5 L 260 267.5 L 260 279.5 L 261 280.5 L 261 287.5 L 264 303.5 Q 269.1 326.4 278 345.5 Q 288.6 368.9 303 388.5 L 323 413 L 326 414.5 L 328.5 418 Q 330.8 417.3 330 419.5 L 353.5 440 L 379.5 458 L 389.5 463 L 394 467.5 Q 395.5 475.5 391.5 478 L 386.5 480 L 365.5 480 L 360.5 481 L 359.5 480 L 328.5 479 L 327.5 478 L 304.5 475 L 284.5 470 L 246.5 456 Q 196.8 433.2 162 395.5 Q 131 362.5 114 315.5 L 108 293.5 L 105 276.5 L 105 268.5 L 104 267.5 L 104 232.5 L 110 198.5 L 121 167.5 Q 138.6 130.1 166.5 103 L 169 101.5 Q 168.3 99.3 170.5 100 Q 204.5 66.5 253.5 48 L 278.5 40 L 301.5 35 L 313.5 34 L 314.5 33 L 323.5 33 L 324.5 32 L 342.5 32 L 343.5 31 Z M 328 48 L 327 49 L 318 49 L 317 50 L 305 51 L 282 56 L 248 68 Q 208 86 179 114 Q 151 141 134 179 L 124 210 L 121 226 L 121 235 L 120 236 L 120 265 L 121 266 L 121 274 L 124 291 L 131 315 Q 147 355 174 385 Q 205 418 249 439 Q 268 449 292 455 L 319 461 L 332 462 L 333 463 L 342 463 L 343 464 L 359 464 Q 338 450 321 433 Q 288 402 267 361 Q 257 341 251 319 L 246 297 L 245 284 L 244 283 L 244 273 L 243 272 L 243 245 L 244 244 L 245 226 L 249 205 L 256 182 Q 274 135 305 102 Q 334 71 372 50 L 370 48 L 328 48 Z " /><path fill="rgb(0,0,0)" stroke="rgb(0,0,0)" stroke-width="1" opacity="0" d="M 0 0 L 512 0 L 512 512 L 0 512 L 0 0 Z M 343 31 L 342 32 L 315 33 L 287 38 L 246 51 L 212 68 L 185 87 L 171 100 Q 168 99 169 102 L 167 103 Q 139 130 121 168 L 110 199 L 104 233 L 104 268 L 105 269 L 105 277 L 108 294 L 114 316 Q 131 363 162 396 Q 197 433 247 456 L 285 470 L 305 475 L 328 478 L 329 479 L 360 480 L 361 481 L 366 480 L 387 480 L 392 478 Q 395 475 394 468 L 390 463 L 380 458 L 358 443 L 330 420 Q 331 417 329 418 L 326 415 L 323 413 L 303 389 Q 289 370 279 348 Q 270 327 264 304 L 261 288 L 261 281 L 260 280 L 260 268 L 259 267 L 259 249 L 260 248 L 260 237 L 261 236 L 262 222 L 266 208 L 266 204 L 275 178 Q 294 133 328 102 Q 330 103 329 100 L 353 81 L 368 71 Q 384 60 405 52 L 408 49 L 407 40 L 402 36 L 384 34 L 383 33 L 343 31 Z " /><path fill="rgb(65,123,192)" stroke="rgb(65,123,192)" stroke-width="1" opacity="0.8156862745098039" d="M 327.5 48 L 336 48.5 L 327.5 49 L 327.5 48 Z " /><path fill="rgb(65,123,192)" stroke="rgb(65,123,192)" stroke-width="1" opacity="0.8156862745098039" d="M 361.5 48 L 370 48.5 L 361.5 49 L 361.5 48 Z " /><path fill="rgb(65,123,192)" stroke="rgb(65,123,192)" stroke-width="1" opacity="0.8156862745098039" d="M 317.5 49 L 323 49.5 L 317.5 50 L 317.5 49 Z " /><path fill="rgb(65,123,192)" stroke="rgb(65,123,192)" stroke-width="1" opacity="0.8156862745098039" d="M 371.5 49 L 370.5 51 L 371.5 49 Z " /><path fill="rgb(65,123,192)" stroke="rgb(65,123,192)" stroke-width="1" opacity="0.8156862745098039" d="M 310.5 50 L 314 50.5 L 310.5 51 L 310.5 50 Z " /><path fill="rgb(65,123,192)" stroke="rgb(65,123,192)" stroke-width="1" opacity="0.8156862745098039" d="M 304.5 51 L 307 51.5 L 304.5 52 L 304.5 51 Z " /><path fill="rgb(65,123,192)" stroke="rgb(65,123,192)" stroke-width="1" opacity="0.8156862745098039" d="M 299.5 52 L 302 52.5 L 299.5 53 L 299.5 52 Z " /><path fill="rgb(65,123,192)" stroke="rgb(65,123,192)" stroke-width="1" opacity="0.8156862745098039" d="M 364.5 53 L 363.5 55 L 364.5 53 Z " /><path fill="rgb(65,123,192)" stroke="rgb(65,123,192)" stroke-width="1" opacity="0.8156862745098039" d="M 289.5 54 L 292 54.5 L 289.5 55 L 289.5 54 Z " /><path fill="rgb(65,123,192)" stroke="rgb(65,123,192)" stroke-width="1" opacity="0.8156862745098039" d="M 285.5 55 L 288 55.5 L 285.5 56 L 285.5 55 Z " /><path fill="rgb(65,123,192)" stroke="rgb(65,123,192)" stroke-width="1" opacity="0.8156862745098039" d="M 281.5 56 L 284 56.5 L 281.5 57 L 281.5 56 Z " /><path fill="rgb(65,123,192)" stroke="rgb(65,123,192)" stroke-width="1" opacity="0.8156862745098039" d="M 359.5 56 L 358.5 58 L 359.5 56 Z " /><path fill="rgb(65,123,192)" stroke="rgb(65,123,192)" stroke-width="1" opacity="0.8156862745098039" d="M 356.5 58 L 355.5 60 L 356.5 58 Z " /><path fill="rgb(65,123,192)" stroke="rgb(65,123,192)" stroke-width="1" opacity="0.8156862745098039" d="M 353.5 60 L 352.5 62 L 353.5 60 Z " /><path fill="rgb(65,123,192)" stroke="rgb(65,123,192)" stroke-width="1" opacity="0.8156862745098039" d="M 350.5 62 L 349.5 64 L 350.5 62 Z " /><path fill="rgb(65,123,192)" stroke="rgb(65,123,192)" stroke-width="1" opacity="0.8156862745098039" d="M 347.5 64 L 346.5 66 L 347.5 64 Z " /><path fill="rgb(65,123,192)" stroke="rgb(65,123,192)" stroke-width="1" opacity="0.8156862745098039" d="M 344.5 66 L 342.5 69 L 344.5 66 Z " /><path fill="rgb(65,123,192)" stroke="rgb(65,123,192)" stroke-width="1" opacity="0.8156862745098039" d="M 340.5 69 L 338.5 72 L 340.5 69 Z " /><path fill="rgb(65,123,192)" stroke="rgb(65,123,192)" stroke-width="1" opacity="0.8156862745098039" d="M 336.5 72 L 334.5 75 L 336.5 72 Z " /><path fill="rgb(65,123,192)" stroke="rgb(65,123,192)" stroke-width="1" opacity="0.8156862745098039" d="M 236.5 73 L 238 73.5 L 235.5 75 L 236.5 73 Z " /><path fill="rgb(65,123,192)" stroke="rgb(65,123,192)" stroke-width="1" opacity="0.8156862745098039" d="M 331.5 76 L 328.5 80 L 331.5 76 Z " /><path fill="rgb(65,123,192)" stroke="rgb(65,123,192)" stroke-width="1" opacity="0.8156862745098039" d="M 225.5 79 L 224.5 81 L 222.5 82 L 223.5 80 L 225.5 79 Z " /><path fill="rgb(65,123,192)" stroke="rgb(65,123,192)" stroke-width="1" opacity="0.8156862745098039" d="M 325.5 81 L 320.5 87 L 325.5 81 Z " /><path fill="rgb(65,123,192)" stroke="rgb(65,123,192)" stroke-width="1" opacity="0.8156862745098039" d="M 218.5 83 L 217.5 85 L 218.5 83 Z " /><path fill="rgb(65,123,192)" stroke="rgb(65,123,192)" stroke-width="1" opacity="0.8156862745098039" d="M 215.5 85 L 214.5 87 L 215.5 85 Z " /><path fill="rgb(65,123,192)" stroke="rgb(65,123,192)" stroke-width="1" opacity="0.8156862745098039" d="M 209.5 89 L 208.5 91 L 209.5 89 Z " /><path fill="rgb(65,123,192)" stroke="rgb(65,123,192)" stroke-width="1" opacity="0.8156862745098039" d="M 206.5 91 L 205.5 93 L 206.5 91 Z " /><path fill="rgb(65,123,192)" stroke="rgb(65,123,192)" stroke-width="1" opacity="0.8156862745098039" d="M 314.5 91 L 309.5 97 L 314.5 91 Z " /><path fill="rgb(65,123,192)" stroke="rgb(65,123,192)" stroke-width="1" opacity="0.8156862745098039" d="M 203.5 93 L 201.5 96 L 203.5 93 Z " /><path fill="rgb(65,123,192)" stroke="rgb(65,123,192)" stroke-width="1" opacity="0.8156862745098039" d="M 199.5 96 L 197.5 99 L 199.5 96 Z " /><path fill="rgb(65,123,192)" stroke="rgb(65,123,192)" stroke-width="1" opacity="0.8156862745098039" d="M 195.5 99 L 192.5 103 L 195.5 99 Z " /><path fill="rgb(65,123,192)" stroke="rgb(65,123,192)" stroke-width="1" opacity="0.8156862745098039" d="M 304.5 102 L 298.5 109 L 304.5 102 Z " /><path fill="rgb(65,123,192)" stroke="rgb(65,123,192)" stroke-width="1" opacity="0.8156862745098039" d="M 189.5 104 L 184.5 110 L 189.5 104 Z " /><path fill="rgb(65,123,192)" stroke="rgb(65,123,192)" stroke-width="1" opacity="0.8156862745098039" d="M 297.5 110 L 294.5 114 L 297.5 110 Z " /><path fill="rgb(65,123,192)" stroke="rgb(65,123,192)" stroke-width="1" opacity="0.8156862745098039" d="M 178.5 114 L 174.5 119 L 178.5 114 Z " /><path fill="rgb(65,123,192)" stroke="rgb(65,123,192)" stroke-width="1" opacity="0.8156862745098039" d="M 292.5 116 L 290.5 119 L 292.5 116 Z " /><path fill="rgb(65,123,192)" stroke="rgb(65,123,192)" stroke-width="1" opacity="0.8156862745098039" d="M 289.5 120 L 287.5 123 L 289.5 120 Z " /><path fill="rgb(65,123,192)" stroke="rgb(65,123,192)" stroke-width="1" opacity="0.8156862745098039" d="M 170.5 123 L 165.5 129 L 170.5 123 Z " /><path fill="rgb(65,123,192)" stroke="rgb(65,123,192)" stroke-width="1" opacity="0.8156862745098039" d="M 286.5 124 L 285.5 126 L 286.5 124 Z " /><path fill="rgb(65,123,192)" stroke="rgb(65,123,192)" stroke-width="1" opacity="0.8156862745098039" d="M 284.5 127 L 282.5 130 L 284.5 127 Z " /><path fill="rgb(65,123,192)" stroke="rgb(65,123,192)" stroke-width="1" opacity="0.8156862745098039" d="M 163.5 131 L 161.5 134 L 163.5 131 Z " /><path fill="rgb(65,123,192)" stroke="rgb(65,123,192)" stroke-width="1" opacity="0.8156862745098039" d="M 281.5 131 L 280.5 133 L 281.5 131 Z " /><path fill="rgb(65,123,192)" stroke="rgb(65,123,192)" stroke-width="1" opacity="0.8156862745098039" d="M 159.5 136 L 157.5 139 L 159.5 136 Z " /><path fill="rgb(65,123,192)" stroke="rgb(65,123,192)" stroke-width="1" opacity="0.8156862745098039" d="M 278.5 136 L 277.5 138 L 278.5 136 Z " /><path fill="rgb(65,123,192)" stroke="rgb(65,123,192)" stroke-width="1" opacity="0.8156862745098039" d="M 276.5 139 L 275.5 141 L 276.5 139 Z " /><path fill="rgb(65,123,192)" stroke="rgb(65,123,192)" stroke-width="1" opacity="0.8156862745098039" d="M 156.5 140 L 155.5 142 L 156.5 140 Z " /><path fill="rgb(65,123,192)" stroke="rgb(65,123,192)" stroke-width="1" opacity="0.8156862745098039" d="M 154.5 143 L 152.5 146 L 154.5 143 Z " /><path fill="rgb(65,123,192)" stroke="rgb(65,123,192)" stroke-width="1" opacity="0.8156862745098039" d="M 273.5 144 L 273 145.5 L 271.5 148 L 272 146.5 L 273.5 144 Z " /><path fill="rgb(65,123,192)" stroke="rgb(65,123,192)" stroke-width="1" opacity="0.8156862745098039" d="M 151.5 147 L 150.5 149 L 151.5 147 Z " /><path fill="rgb(65,123,192)" stroke="rgb(65,123,192)" stroke-width="1" opacity="0.8156862745098039" d="M 148.5 152 L 147.5 154 L 148.5 152 Z " /><path fill="rgb(65,123,192)" stroke="rgb(65,123,192)" stroke-width="1" opacity="0.8156862745098039" d="M 146.5 155 L 146 156.5 L 144.5 159 L 145 157.5 L 146.5 155 Z " /><path fill="rgb(65,123,192)" stroke="rgb(65,123,192)" stroke-width="1" opacity="0.8156862745098039" d="M 250.5 198 L 251 200.5 L 250 200.5 L 250.5 198 Z " /><path fill="rgb(65,123,192)" stroke="rgb(65,123,192)" stroke-width="1" opacity="0.8156862745098039" d="M 248.5 206 L 249 208.5 L 248 208.5 L 248.5 206 Z " /><path fill="rgb(65,123,192)" stroke="rgb(65,123,192)" stroke-width="1" opacity="0.8156862745098039" d="M 124.5 209 L 125 211.5 L 124 211.5 L 124.5 209 Z " /><path fill="rgb(65,123,192)" stroke="rgb(65,123,192)" stroke-width="1" opacity="0.8156862745098039" d="M 123.5 214 L 124 216.5 L 123 216.5 L 123.5 214 Z " /><path fill="rgb(65,123,192)" stroke="rgb(65,123,192)" stroke-width="1" opacity="0.8156862745098039" d="M 246.5 215 L 247 218.5 L 246 218.5 L 246.5 215 Z " /><path fill="rgb(65,123,192)" stroke="rgb(65,123,192)" stroke-width="1" opacity="0.8156862745098039" d="M 122.5 219 L 123 222.5 L 122 222.5 L 122.5 219 Z " /><path fill="rgb(65,123,192)" stroke="rgb(65,123,192)" stroke-width="1" opacity="0.8156862745098039" d="M 245.5 221 L 246 224.5 L 245 224.5 L 245.5 221 Z " /><path fill="rgb(65,123,192)" stroke="rgb(65,123,192)" stroke-width="1" opacity="0.8156862745098039" d="M 121.5 225 L 122 230.5 L 121 230.5 L 121.5 225 Z " /><path fill="rgb(65,123,192)" stroke="rgb(65,123,192)" stroke-width="1" opacity="0.8156862745098039" d="M 244.5 228 L 245 232.5 L 244 232.5 L 244.5 228 Z " /><path fill="rgb(65,123,192)" stroke="rgb(65,123,192)" stroke-width="1" opacity="0.8156862745098039" d="M 120.5 235 L 121 245.5 L 120 245.5 L 120.5 235 Z " /><path fill="rgb(65,123,192)" stroke="rgb(65,123,192)" stroke-width="1" opacity="0.8156862745098039" d="M 243.5 236 L 244 243.5 L 243 243.5 L 243.5 236 Z " /><path fill="rgb(65,123,192)" stroke="rgb(65,123,192)" stroke-width="1" opacity="0.8156862745098039" d="M 120.5 248 L 121 264.5 L 120 264.5 L 120.5 248 Z " /><path fill="rgb(65,123,192)" stroke="rgb(65,123,192)" stroke-width="1" opacity="0.8156862745098039" d="M 242.5 254 L 243 259.5 L 242 259.5 L 242.5 254 Z " /><path fill="rgb(65,123,192)" stroke="rgb(65,123,192)" stroke-width="1" opacity="0.8156862745098039" d="M 121.5 269 L 122 273.5 L 121 273.5 L 121.5 269 Z " /><path fill="rgb(65,123,192)" stroke="rgb(65,123,192)" stroke-width="1" opacity="0.8156862745098039" d="M 243.5 272 L 244 278.5 L 243 278.5 L 243.5 272 Z " /><path fill="rgb(65,123,192)" stroke="rgb(65,123,192)" stroke-width="1" opacity="0.8156862745098039" d="M 122.5 277 L 123 280.5 L 122 280.5 L 122.5 277 Z " /><path fill="rgb(65,123,192)" stroke="rgb(65,123,192)" stroke-width="1" opacity="0.8156862745098039" d="M 123.5 283 L 124 285.5 L 123 285.5 L 123.5 283 Z " /><path fill="rgb(65,123,192)" stroke="rgb(65,123,192)" stroke-width="1" opacity="0.8156862745098039" d="M 244.5 283 L 245 287.5 L 244 287.5 L 244.5 283 Z " /><path fill="rgb(65,123,192)" stroke="rgb(65,123,192)" stroke-width="1" opacity="0.8156862745098039" d="M 124.5 288 L 125 290.5 L 124 290.5 L 124.5 288 Z " /><path fill="rgb(65,123,192)" stroke="rgb(65,123,192)" stroke-width="1" opacity="0.8156862745098039" d="M 245.5 291 L 246 293.5 L 245 293.5 L 245.5 291 Z " /><path fill="rgb(65,123,192)" stroke="rgb(65,123,192)" stroke-width="1" opacity="0.8156862745098039" d="M 246.5 297 L 247 299.5 L 246 299.5 L 246.5 297 Z " /><path fill="rgb(65,123,192)" stroke="rgb(65,123,192)" stroke-width="1" opacity="0.8156862745098039" d="M 247.5 302 L 248 304.5 L 247 304.5 L 247.5 302 Z " /><path fill="rgb(65,123,192)" stroke="rgb(65,123,192)" stroke-width="1" opacity="0.8156862745098039" d="M 249.5 311 L 250 313.5 L 249 313.5 L 249.5 311 Z " /><path fill="rgb(65,123,192)" stroke="rgb(65,123,192)" stroke-width="1" opacity="0.8156862745098039" d="M 140.5 334 L 143 338.5 L 141 337.5 L 140.5 334 Z " /><path fill="rgb(65,123,192)" stroke="rgb(65,123,192)" stroke-width="1" opacity="0.8156862745098039" d="M 146.5 346 L 147.5 348 L 146.5 346 Z " /><path fill="rgb(65,123,192)" stroke="rgb(65,123,192)" stroke-width="1" opacity="0.8156862745098039" d="M 149.5 351 L 150.5 353 L 149.5 351 Z " /><path fill="rgb(65,123,192)" stroke="rgb(65,123,192)" stroke-width="1" opacity="0.8156862745098039" d="M 151.5 354 L 152.5 356 L 151.5 354 Z " /><path fill="rgb(65,123,192)" stroke="rgb(65,123,192)" stroke-width="1" opacity="0.8156862745098039" d="M 264.5 354 L 267 359.5 L 266 359.5 L 264.5 354 Z " /><path fill="rgb(65,123,192)" stroke="rgb(65,123,192)" stroke-width="1" opacity="0.8156862745098039" d="M 153.5 357 L 154.5 359 L 153.5 357 Z " /><path fill="rgb(65,123,192)" stroke="rgb(65,123,192)" stroke-width="1" opacity="0.8156862745098039" d="M 155.5 360 L 156.5 362 L 155.5 360 Z " /><path fill="rgb(65,123,192)" stroke="rgb(65,123,192)" stroke-width="1" opacity="0.8156862745098039" d="M 157.5 363 L 159.5 366 L 157.5 363 Z " /><path fill="rgb(65,123,192)" stroke="rgb(65,123,192)" stroke-width="1" opacity="0.8156862745098039" d="M 268.5 363 L 272 368.5 L 270 367.5 L 268.5 363 Z " /><path fill="rgb(65,123,192)" stroke="rgb(65,123,192)" stroke-width="1" opacity="0.8156862745098039" d="M 160.5 367 L 162.5 370 L 160.5 367 Z " /><path fill="rgb(65,123,192)" stroke="rgb(65,123,192)" stroke-width="1" opacity="0.8156862745098039" d="M 163.5 371 L 165.5 374 L 163.5 371 Z " /><path fill="rgb(65,123,192)" stroke="rgb(65,123,192)" stroke-width="1" opacity="0.8156862745098039" d="M 274.5 374 L 275.5 376 L 274.5 374 Z " /><path fill="rgb(65,123,192)" stroke="rgb(65,123,192)" stroke-width="1" opacity="0.8156862745098039" d="M 167.5 376 L 172.5 382 L 167.5 376 Z " /><path fill="rgb(65,123,192)" stroke="rgb(65,123,192)" stroke-width="1" opacity="0.8156862745098039" d="M 277.5 379 L 278.5 381 L 277.5 379 Z " /><path fill="rgb(65,123,192)" stroke="rgb(65,123,192)" stroke-width="1" opacity="0.8156862745098039" d="M 174.5 384 L 186.5 397 L 174.5 384 Z " /><path fill="rgb(65,123,192)" stroke="rgb(65,123,192)" stroke-width="1" opacity="0.8156862745098039" d="M 280.5 384 L 281.5 386 L 280.5 384 Z " /><path fill="rgb(65,123,192)" stroke="rgb(65,123,192)" stroke-width="1" opacity="0.8156862745098039" d="M 282.5 387 L 283.5 389 L 282.5 387 Z " /><path fill="rgb(65,123,192)" stroke="rgb(65,123,192)" stroke-width="1" opacity="0.8156862745098039" d="M 284.5 390 L 285.5 392 L 284.5 390 Z " /><path fill="rgb(65,123,192)" stroke="rgb(65,123,192)" stroke-width="1" opacity="0.8156862745098039" d="M 286.5 393 L 287.5 395 L 286.5 393 Z " /><path fill="rgb(65,123,192)" stroke="rgb(65,123,192)" stroke-width="1" opacity="0.8156862745098039" d="M 289.5 397 L 290.5 399 L 289.5 397 Z " /><path fill="rgb(65,123,192)" stroke="rgb(65,123,192)" stroke-width="1" opacity="0.8156862745098039" d="M 191.5 400 L 195.5 405 L 191.5 400 Z " /><path fill="rgb(65,123,192)" stroke="rgb(65,123,192)" stroke-width="1" opacity="0.8156862745098039" d="M 291.5 400 L 293.5 403 L 291.5 400 Z " /><path fill="rgb(65,123,192)" stroke="rgb(65,123,192)" stroke-width="1" opacity="0.8156862745098039" d="M 295.5 405 L 297.5 408 L 295.5 405 Z " /><path fill="rgb(65,123,192)" stroke="rgb(65,123,192)" stroke-width="1" opacity="0.8156862745098039" d="M 198.5 406 L 200.5 409 L 198.5 406 Z " /><path fill="rgb(65,123,192)" stroke="rgb(65,123,192)" stroke-width="1" opacity="0.8156862745098039" d="M 203.5 410 L 205.5 413 L 203.5 410 Z " /><path fill="rgb(65,123,192)" stroke="rgb(65,123,192)" stroke-width="1" opacity="0.8156862745098039" d="M 299.5 410 L 302.5 414 L 299.5 410 Z " /><path fill="rgb(65,123,192)" stroke="rgb(65,123,192)" stroke-width="1" opacity="0.8156862745098039" d="M 207.5 413 L 208.5 415 L 207.5 413 Z " /><path fill="rgb(65,123,192)" stroke="rgb(65,123,192)" stroke-width="1" opacity="0.8156862745098039" d="M 210.5 415 L 212.5 418 L 210.5 415 Z " /><path fill="rgb(65,123,192)" stroke="rgb(65,123,192)" stroke-width="1" opacity="0.8156862745098039" d="M 304.5 416 L 311.5 424 L 304.5 416 Z " /><path fill="rgb(65,123,192)" stroke="rgb(65,123,192)" stroke-width="1" opacity="0.8156862745098039" d="M 214.5 418 L 215.5 420 L 214.5 418 Z " /><path fill="rgb(65,123,192)" stroke="rgb(65,123,192)" stroke-width="1" opacity="0.8156862745098039" d="M 217.5 420 L 218.5 422 L 217.5 420 Z " /><path fill="rgb(65,123,192)" stroke="rgb(65,123,192)" stroke-width="1" opacity="0.8156862745098039" d="M 220.5 422 L 221.5 424 L 220.5 422 Z " /><path fill="rgb(65,123,192)" stroke="rgb(65,123,192)" stroke-width="1" opacity="0.8156862745098039" d="M 223.5 424 L 224.5 426 L 223.5 424 Z " /><path fill="rgb(65,123,192)" stroke="rgb(65,123,192)" stroke-width="1" opacity="0.8156862745098039" d="M 230.5 428 L 231.5 430 L 230.5 428 Z " /><path fill="rgb(65,123,192)" stroke="rgb(65,123,192)" stroke-width="1" opacity="0.8156862745098039" d="M 239.5 433 L 245 436.5 L 243.5 436 Q 239.5 435.5 239.5 433 Z " /><path fill="rgb(65,123,192)" stroke="rgb(65,123,192)" stroke-width="1" opacity="0.8156862745098039" d="M 321.5 433 L 329.5 442 L 321.5 433 Z " /><path fill="rgb(65,123,192)" stroke="rgb(65,123,192)" stroke-width="1" opacity="0.8156862745098039" d="M 332.5 443 L 336.5 448 L 332.5 443 Z " /><path fill="rgb(65,123,192)" stroke="rgb(65,123,192)" stroke-width="1" opacity="0.8156862745098039" d="M 339.5 449 L 341.5 452 L 339.5 449 Z " /><path fill="rgb(65,123,192)" stroke="rgb(65,123,192)" stroke-width="1" opacity="0.8156862745098039" d="M 343.5 452 L 345.5 455 L 343.5 452 Z " /><path fill="rgb(65,123,192)" stroke="rgb(65,123,192)" stroke-width="1" opacity="0.8156862745098039" d="M 348.5 456 L 349.5 458 L 348.5 456 Z " /><path fill="rgb(65,123,192)" stroke="rgb(65,123,192)" stroke-width="1" opacity="0.8156862745098039" d="M 307.5 458 L 310 458.5 L 307.5 459 L 307.5 458 Z " /><path fill="rgb(65,123,192)" stroke="rgb(65,123,192)" stroke-width="1" opacity="0.8156862745098039" d="M 351.5 458 L 353.5 461 L 351.5 458 Z " /><path fill="rgb(65,123,192)" stroke="rgb(65,123,192)" stroke-width="1" opacity="0.8156862745098039" d="M 313.5 459 L 316 459.5 L 313.5 460 L 313.5 459 Z " /><path fill="rgb(65,123,192)" stroke="rgb(65,123,192)" stroke-width="1" opacity="0.8156862745098039" d="M 318.5 460 L 322 460.5 L 318.5 461 L 318.5 460 Z " /><path fill="rgb(65,123,192)" stroke="rgb(65,123,192)" stroke-width="1" opacity="0.8156862745098039" d="M 325.5 461 L 329 461.5 L 325.5 462 L 325.5 461 Z " /><path fill="rgb(65,123,192)" stroke="rgb(65,123,192)" stroke-width="1" opacity="0.8156862745098039" d="M 355.5 461 L 356.5 463 L 355.5 461 Z " /><path fill="rgb(65,123,192)" stroke="rgb(65,123,192)" stroke-width="1" opacity="0.8156862745098039" d="M 332.5 462 L 337 462.5 L 332.5 463 L 332.5 462 Z " /><path fill="rgb(65,123,192)" stroke="rgb(65,123,192)" stroke-width="1" opacity="0.8156862745098039" d="M 342.5 463 L 351 463.5 L 342.5 464 L 342.5 463 Z " /><path fill="rgb(69,137,201)" stroke="rgb(69,137,201)" stroke-width="1" opacity="0.996078431372549" d="M 336.5 48 L 340 48.5 L 336.5 49 L 336.5 48 Z " /><path fill="rgb(69,137,201)" stroke="rgb(69,137,201)" stroke-width="1" opacity="0.996078431372549" d="M 356.5 48 L 361 48.5 L 356.5 49 L 356.5 48 Z " /><path fill="rgb(69,137,201)" stroke="rgb(69,137,201)" stroke-width="1" opacity="0.996078431372549" d="M 342.5 67 L 341.5 69 L 342.5 67 Z " /><path fill="rgb(69,137,201)" stroke="rgb(69,137,201)" stroke-width="1" opacity="0.996078431372549" d="M 338.5 70 L 337.5 72 L 338.5 70 Z " /><path fill="rgb(69,137,201)" stroke="rgb(69,137,201)" stroke-width="1" opacity="0.996078431372549" d="M 333.5 74 L 332.5 76 L 333.5 74 Z " /><path fill="rgb(69,137,201)" stroke="rgb(69,137,201)" stroke-width="1" opacity="0.996078431372549" d="M 328.5 78 L 326.5 81 L 328.5 78 Z " /><path fill="rgb(69,137,201)" stroke="rgb(69,137,201)" stroke-width="1" opacity="0.996078431372549" d="M 321.5 84 L 315.5 91 L 321.5 84 Z " /><path fill="rgb(69,137,201)" stroke="rgb(69,137,201)" stroke-width="1" opacity="0.996078431372549" d="M 211.5 88 L 210.5 90 L 211.5 88 Z " /><path fill="rgb(69,137,201)" stroke="rgb(69,137,201)" stroke-width="1" opacity="0.996078431372549" d="M 308.5 97 L 302.5 104 L 308.5 97 Z " /><path fill="rgb(69,137,201)" stroke="rgb(69,137,201)" stroke-width="1" opacity="0.996078431372549" d="M 196.5 99 L 195.5 101 L 196.5 99 Z " /><path fill="rgb(69,137,201)" stroke="rgb(69,137,201)" stroke-width="1" opacity="0.996078431372549" d="M 191.5 103 L 189.5 106 L 191.5 103 Z " /><path fill="rgb(69,137,201)" stroke="rgb(69,137,201)" stroke-width="1" opacity="0.996078431372549" d="M 297.5 109 L 296.5 111 L 297.5 109 Z " /><path fill="rgb(69,137,201)" stroke="rgb(69,137,201)" stroke-width="1" opacity="0.996078431372549" d="M 183.5 110 L 171.5 123 L 183.5 110 Z " /><path fill="rgb(69,137,201)" stroke="rgb(69,137,201)" stroke-width="1" opacity="0.996078431372549" d="M 293.5 114 L 292.5 116 L 293.5 114 Z " /><path fill="rgb(69,137,201)" stroke="rgb(69,137,201)" stroke-width="1" opacity="0.996078431372549" d="M 289.5 119 L 288.5 121 L 289.5 119 Z " /><path fill="rgb(69,137,201)" stroke="rgb(69,137,201)" stroke-width="1" opacity="0.996078431372549" d="M 284.5 126 L 283.5 128 L 284.5 126 Z " /><path fill="rgb(69,137,201)" stroke="rgb(69,137,201)" stroke-width="1" opacity="0.996078431372549" d="M 166.5 128 L 164.5 131 L 166.5 128 Z " /><path fill="rgb(69,137,201)" stroke="rgb(69,137,201)" stroke-width="1" opacity="0.996078431372549" d="M 161.5 134 L 160.5 136 L 161.5 134 Z " /><path fill="rgb(69,137,201)" stroke="rgb(69,137,201)" stroke-width="1" opacity="0.996078431372549" d="M 278.5 135 L 277.5 137 L 278.5 135 Z " /><path fill="rgb(69,137,201)" stroke="rgb(69,137,201)" stroke-width="1" opacity="0.996078431372549" d="M 158.5 138 L 157.5 140 L 158.5 138 Z " /><path fill="rgb(69,137,201)" stroke="rgb(69,137,201)" stroke-width="1" opacity="0.996078431372549" d="M 153.5 145 L 152.5 147 L 153.5 145 Z " /><path fill="rgb(69,137,201)" stroke="rgb(69,137,201)" stroke-width="1" opacity="0.996078431372549" d="M 242.5 249 L 243 253.5 L 242 253.5 L 242.5 249 Z " /><path fill="rgb(69,137,201)" stroke="rgb(69,137,201)" stroke-width="1" opacity="0.996078431372549" d="M 242.5 260 L 243 266.5 L 242 266.5 L 242.5 260 Z " /><path fill="rgb(69,137,201)" stroke="rgb(69,137,201)" stroke-width="1" opacity="0.996078431372549" d="M 163.5 370 L 164.5 372 L 163.5 370 Z " /><path fill="rgb(69,137,201)" stroke="rgb(69,137,201)" stroke-width="1" opacity="0.996078431372549" d="M 166.5 374 L 168.5 377 L 166.5 374 Z " /><path fill="rgb(69,137,201)" stroke="rgb(69,137,201)" stroke-width="1" opacity="0.996078431372549" d="M 173.5 382 L 178.5 388 L 173.5 382 Z " /><path fill="rgb(69,137,201)" stroke="rgb(69,137,201)" stroke-width="1" opacity="0.996078431372549" d="M 184.5 393 L 190.5 400 L 184.5 393 Z " /><path fill="rgb(69,137,201)" stroke="rgb(69,137,201)" stroke-width="1" opacity="0.996078431372549" d="M 287.5 395 L 288.5 397 L 287.5 395 Z " /><path fill="rgb(69,137,201)" stroke="rgb(69,137,201)" stroke-width="1" opacity="0.996078431372549" d="M 195.5 403 L 197.5 406 L 195.5 403 Z " /><path fill="rgb(69,137,201)" stroke="rgb(69,137,201)" stroke-width="1" opacity="0.996078431372549" d="M 293.5 403 L 294.5 405 L 293.5 403 Z " /><path fill="rgb(69,137,201)" stroke="rgb(69,137,201)" stroke-width="1" opacity="0.996078431372549" d="M 296.5 407 L 298.5 410 L 296.5 407 Z " /><path fill="rgb(69,137,201)" stroke="rgb(69,137,201)" stroke-width="1" opacity="0.996078431372549" d="M 201.5 408 L 202.5 410 L 201.5 408 Z " /><path fill="rgb(69,137,201)" stroke="rgb(69,137,201)" stroke-width="1" opacity="0.996078431372549" d="M 205.5 411 L 206.5 413 L 205.5 411 Z " /><path fill="rgb(69,137,201)" stroke="rgb(69,137,201)" stroke-width="1" opacity="0.996078431372549" d="M 301.5 413 L 303.5 416 L 301.5 413 Z " /><path fill="rgb(69,137,201)" stroke="rgb(69,137,201)" stroke-width="1" opacity="0.996078431372549" d="M 308.5 421 L 324.5 438 L 308.5 421 Z " /><path fill="rgb(69,137,201)" stroke="rgb(69,137,201)" stroke-width="1" opacity="0.996078431372549" d="M 330.5 442 L 332.5 445 L 330.5 442 Z " /><path fill="rgb(69,137,201)" stroke="rgb(69,137,201)" stroke-width="1" opacity="0.996078431372549" d="M 337.5 448 L 338.5 450 L 337.5 448 Z " /><path fill="rgb(69,137,201)" stroke="rgb(69,137,201)" stroke-width="1" opacity="0.996078431372549" d="M 342.5 452 L 343.5 454 L 342.5 452 Z " /><path fill="rgb(69,137,201)" stroke="rgb(69,137,201)" stroke-width="1" opacity="0.996078431372549" d="M 346.5 455 L 347.5 457 L 346.5 455 Z " /><path fill="rgb(69,137,201)" stroke="rgb(69,137,201)" stroke-width="1" opacity="0.996078431372549" d="M 350.5 458 L 351.5 460 L 350.5 458 Z " /><path fill="rgb(69,137,201)" stroke="rgb(69,137,201)" stroke-width="1" opacity="0.996078431372549" d="M 351.5 463 L 355 463.5 L 351.5 464 L 351.5 463 Z " /><path fill="rgb(69,137,201)" stroke="rgb(69,137,201)" stroke-width="1" opacity="1" d="M 340.5 48 L 371 49.5 Q 330.9 70.9 302 103.5 Q 273.7 134.2 257 176.5 L 250 197.5 L 246 214.5 L 246 219.5 L 244 226.5 L 244 234.5 L 243 235.5 L 242 266.5 L 243 267.5 L 243 280.5 L 244 281.5 L 245 295.5 L 249 314.5 L 262 351.5 Q 285.3 402.7 324.5 438 L 357 463.5 L 355.5 464 L 354.5 463 L 330.5 462 L 329.5 461 L 306.5 458 Q 281.3 452.2 259.5 443 Q 212.3 422.7 179 388.5 Q 149.8 359.2 133 317.5 L 127 299.5 L 122 275.5 L 122 267.5 L 121 266.5 L 121 233.5 L 122 232.5 L 123 218.5 L 128 197.5 L 141 165.5 Q 159.7 130.7 188.5 106 Q 218.6 79.6 259.5 64 L 297.5 53 L 315.5 51 L 316.5 50 L 324.5 50 L 325.5 49 L 339.5 49 L 340.5 48 Z " /></svg>