<svg width="512" height="512" version="1.1" xmlns="http://www.w3.org/2000/svg" desc="Created with imagetracer.js version 1.2.6" ><path fill="rgb(0,0,0)" stroke="rgb(0,0,0)" stroke-width="1" opacity="0" d="M 0 0 L 512 0 L 512 512 L 0 512 L 0 0 Z M 253 16 L 251 17 L 248 21 L 248 108 L 249 110 L 253 112 L 262 111 L 264 108 L 264 21 L 263 19 Q 260 15 253 16 Z M 137 47 L 135 48 L 131 55 L 135 65 L 172 129 L 178 133 L 185 132 L 188 129 L 189 125 L 187 119 L 147 50 Q 144 46 137 47 Z M 369 47 L 367 48 L 325 119 Q 323 122 324 129 L 330 133 L 337 132 L 343 124 L 380 59 L 379 50 Q 376 46 369 47 Z M 204 54 L 199 56 L 196 60 L 196 67 L 209 114 L 216 118 L 223 116 L 225 113 L 225 107 L 212 59 Q 210 54 204 54 Z M 307 54 L 304 55 L 299 61 L 289 102 L 287 106 L 287 113 L 289 116 L 294 118 L 300 117 L 304 112 L 316 67 L 316 60 L 314 56 L 307 54 Z M 113 106 L 108 108 L 106 113 L 107 120 L 146 157 Q 152 158 155 155 L 157 151 Q 158 145 155 143 L 121 108 Q 118 105 113 106 Z M 396 106 L 393 107 L 355 146 L 356 154 L 362 157 L 369 156 L 404 121 L 406 117 Q 407 110 404 108 Q 402 105 396 106 Z M 241 128 L 221 132 L 209 136 Q 189 144 175 156 Q 155 172 142 196 L 132 221 L 128 241 L 128 272 L 132 292 Q 140 319 156 338 Q 173 358 198 371 L 221 380 L 241 384 L 272 384 L 292 380 Q 319 372 338 356 Q 357 340 370 317 L 380 292 L 384 272 L 384 241 L 380 221 Q 372 194 356 175 Q 336 149 304 136 L 284 130 L 273 129 L 272 128 L 241 128 Z M 52 132 L 50 133 L 47 137 L 48 146 L 119 187 Q 122 189 129 188 L 133 183 L 132 176 L 129 172 L 65 135 L 59 132 L 52 132 Z M 454 132 L 384 172 L 379 178 Q 378 186 384 188 Q 390 189 394 187 L 463 147 L 465 144 L 464 135 Q 461 131 454 132 Z M 60 196 L 58 197 L 54 203 L 55 209 L 61 213 L 102 223 L 106 225 L 113 225 L 116 223 L 118 218 L 117 213 L 112 208 L 101 206 L 67 196 L 60 196 Z M 446 196 L 399 209 L 394 216 L 396 223 L 400 225 L 407 225 L 454 212 L 458 206 L 456 199 Q 453 195 446 196 Z M 21 248 L 19 249 L 16 253 L 17 262 L 21 264 L 108 264 L 110 263 L 112 260 L 111 251 L 108 248 L 21 248 Z M 405 248 L 403 249 L 400 253 L 401 262 L 405 264 L 492 264 L 494 263 L 496 260 L 495 251 L 492 248 L 405 248 Z M 107 287 L 59 300 L 54 307 L 56 314 L 60 316 L 67 316 L 114 303 L 118 297 L 117 292 Q 116 286 107 287 Z M 400 287 L 396 289 L 394 294 L 395 300 L 401 304 L 446 316 L 455 315 L 458 309 L 457 304 Q 454 299 448 298 L 406 287 L 400 287 Z M 121 324 L 50 365 L 47 369 L 48 378 L 52 380 L 59 380 L 65 377 L 129 340 L 133 335 L 132 328 Q 130 322 121 324 Z M 384 324 L 379 330 L 380 337 L 389 343 L 454 380 Q 460 381 463 379 L 465 376 L 464 367 L 394 325 Q 390 323 384 324 Z M 147 355 L 144 356 L 107 393 L 106 396 Q 105 402 108 404 L 113 406 L 120 405 L 155 370 L 157 366 Q 158 359 155 357 Q 153 354 147 355 Z M 362 355 L 357 357 L 355 361 L 356 369 L 393 405 L 396 406 Q 402 407 404 404 L 406 400 Q 407 394 404 392 L 370 357 Q 367 354 362 355 Z M 178 379 L 176 380 L 169 389 L 132 454 L 133 463 L 137 465 L 144 465 L 147 463 L 187 394 Q 189 390 188 384 Q 186 378 178 379 Z M 330 379 L 328 380 L 324 384 L 323 388 L 325 394 L 365 463 L 369 465 L 378 464 L 381 458 L 377 448 L 340 384 Q 338 378 330 379 Z M 216 394 L 213 395 L 208 401 L 196 446 L 197 455 L 203 458 L 209 457 Q 213 454 214 448 L 225 406 L 224 399 Q 222 394 216 394 Z M 295 394 L 289 396 L 287 400 L 287 407 L 300 454 L 307 458 L 314 456 L 316 453 L 316 446 L 303 399 Q 301 394 295 394 Z M 253 400 L 251 401 L 248 405 L 248 492 L 249 494 L 253 496 L 262 495 L 264 492 L 264 405 L 263 403 Q 260 399 253 400 Z " /><path fill="rgb(255,200,0)" stroke="rgb(255,200,0)" stroke-width="1" opacity="0.4745098039215686" d="M 252.5 16 L 254 16.5 L 249 20.5 L 248.5 22 L 248 20.5 L 250.5 17 L 252.5 16 Z " /><path fill="rgb(255,200,0)" stroke="rgb(255,200,0)" stroke-width="1" opacity="0.4745098039215686" d="M 258.5 16 L 263 18.5 L 264 21.5 L 263 21.5 L 259.5 17 L 258.5 16 Z " /><path fill="rgb(255,200,0)" stroke="rgb(255,200,0)" stroke-width="1" opacity="0.4745098039215686" d="M 136.5 47 L 138 47.5 L 133 51.5 L 132.5 53 L 132 51.5 L 134.5 48 L 136.5 47 Z " /><path fill="rgb(255,200,0)" stroke="rgb(255,200,0)" stroke-width="1" opacity="0.4745098039215686" d="M 142.5 47 L 147 49.5 L 174 96.5 L 172 95.5 L 148 52.5 L 143.5 48 L 142.5 47 Z " /><path fill="rgb(255,200,0)" stroke="rgb(255,200,0)" stroke-width="1" opacity="0.4745098039215686" d="M 368.5 47 L 371 47.5 Q 365.9 47.9 364.5 52 L 365 50.5 L 366.5 48 L 368.5 47 Z " /><path fill="rgb(255,200,0)" stroke="rgb(255,200,0)" stroke-width="1" opacity="0.4745098039215686" d="M 373.5 47 L 379 49.5 L 380 52.5 L 379 52.5 L 375.5 48 Q 372.5 48.5 373.5 47 Z " /><path fill="rgb(255,200,0)" stroke="rgb(255,200,0)" stroke-width="1" opacity="0.4745098039215686" d="M 363.5 53 L 363 54.5 L 324.5 122 L 324 120.5 L 363.5 53 Z " /><path fill="rgb(255,200,0)" stroke="rgb(255,200,0)" stroke-width="1" opacity="0.4745098039215686" d="M 203.5 54 L 206 54.5 L 203.5 55 L 203.5 54 Z " /><path fill="rgb(255,200,0)" stroke="rgb(255,200,0)" stroke-width="1" opacity="0.4745098039215686" d="M 306.5 54 L 309 54.5 L 306.5 55 L 306.5 54 Z " /><path fill="rgb(255,200,0)" stroke="rgb(255,200,0)" stroke-width="1" opacity="0.4745098039215686" d="M 200.5 55 L 202 55.5 L 197 59.5 L 196.5 62 L 196 59.5 L 198.5 56 L 200.5 55 Z " /><path fill="rgb(255,200,0)" stroke="rgb(255,200,0)" stroke-width="1" opacity="0.4745098039215686" d="M 207.5 55 L 212 58.5 L 211.5 60 L 208.5 56 L 207.5 55 Z " /><path fill="rgb(255,200,0)" stroke="rgb(255,200,0)" stroke-width="1" opacity="0.4745098039215686" d="M 303.5 55 L 305 55.5 L 301 58.5 L 298.5 67 L 298 64.5 Q 298.9 57.9 303.5 55 Z " /><path fill="rgb(255,200,0)" stroke="rgb(255,200,0)" stroke-width="1" opacity="0.4745098039215686" d="M 310.5 55 L 314 56 L 316 59.5 L 316 66.5 L 313.5 74 L 313 71.5 Q 316 67.5 315 59.5 L 310.5 55 Z " /><path fill="rgb(255,200,0)" stroke="rgb(255,200,0)" stroke-width="1" opacity="0.4745098039215686" d="M 133.5 60 L 144 77.5 L 142 76.5 L 133.5 60 Z " /><path fill="rgb(255,200,0)" stroke="rgb(255,200,0)" stroke-width="1" opacity="0.4745098039215686" d="M 378.5 60 L 378 61.5 L 343 123.5 L 336.5 132 L 329.5 133 L 324 128.5 L 324.5 126 L 327.5 131 L 334.5 132 L 339 128.5 L 378.5 60 Z " /><path fill="rgb(255,200,0)" stroke="rgb(255,200,0)" stroke-width="1" opacity="0.4745098039215686" d="M 212.5 61 L 215 70.5 L 214 70.5 L 212.5 61 Z " /><path fill="rgb(255,200,0)" stroke="rgb(255,200,0)" stroke-width="1" opacity="0.4745098039215686" d="M 196.5 63 L 197 66.5 L 196 66.5 L 196.5 63 Z " /><path fill="rgb(255,200,0)" stroke="rgb(255,200,0)" stroke-width="1" opacity="0.4745098039215686" d="M 197.5 68 L 198 70.5 L 197 70.5 L 197.5 68 Z " /><path fill="rgb(255,200,0)" stroke="rgb(255,200,0)" stroke-width="1" opacity="0.4745098039215686" d="M 297.5 68 L 298 70.5 L 297 70.5 L 297.5 68 Z " /><path fill="rgb(255,200,0)" stroke="rgb(255,200,0)" stroke-width="1" opacity="0.4745098039215686" d="M 198.5 72 L 200 77.5 L 199 77.5 L 198.5 72 Z " /><path fill="rgb(255,200,0)" stroke="rgb(255,200,0)" stroke-width="1" opacity="0.4745098039215686" d="M 215.5 72 L 216 74.5 L 215 74.5 L 215.5 72 Z " /><path fill="rgb(255,200,0)" stroke="rgb(255,200,0)" stroke-width="1" opacity="0.4745098039215686" d="M 296.5 72 L 297 74.5 L 294.5 82 L 294 79.5 L 296.5 72 Z " /><path fill="rgb(255,200,0)" stroke="rgb(255,200,0)" stroke-width="1" opacity="0.4745098039215686" d="M 312.5 75 L 313 77.5 L 312 77.5 L 312.5 75 Z " /><path fill="rgb(255,200,0)" stroke="rgb(255,200,0)" stroke-width="1" opacity="0.4745098039215686" d="M 216.5 76 L 219 85.5 L 218 85.5 L 216.5 76 Z " /><path fill="rgb(255,200,0)" stroke="rgb(255,200,0)" stroke-width="1" opacity="0.4745098039215686" d="M 144.5 79 L 159 103.5 L 157 102.5 L 144.5 79 Z " /><path fill="rgb(255,200,0)" stroke="rgb(255,200,0)" stroke-width="1" opacity="0.4745098039215686" d="M 200.5 79 L 201 81.5 L 200 81.5 L 200.5 79 Z " /><path fill="rgb(255,200,0)" stroke="rgb(255,200,0)" stroke-width="1" opacity="0.4745098039215686" d="M 311.5 79 L 312 81.5 L 309.5 89 L 309 86.5 L 311.5 79 Z " /><path fill="rgb(255,200,0)" stroke="rgb(255,200,0)" stroke-width="1" opacity="0.4745098039215686" d="M 201.5 83 L 202 85.5 L 201 85.5 L 201.5 83 Z " /><path fill="rgb(255,200,0)" stroke="rgb(255,200,0)" stroke-width="1" opacity="0.4745098039215686" d="M 293.5 83 L 294 85.5 L 293 85.5 L 293.5 83 Z " /><path fill="rgb(255,200,0)" stroke="rgb(255,200,0)" stroke-width="1" opacity="0.4745098039215686" d="M 202.5 87 L 204 92.5 L 203 92.5 L 202.5 87 Z " /><path fill="rgb(255,200,0)" stroke="rgb(255,200,0)" stroke-width="1" opacity="0.4745098039215686" d="M 219.5 87 L 220 89.5 L 219 89.5 L 219.5 87 Z " /><path fill="rgb(255,200,0)" stroke="rgb(255,200,0)" stroke-width="1" opacity="0.4745098039215686" d="M 292.5 87 L 293 89.5 L 291.5 93 L 291 90.5 L 292.5 87 Z " /><path fill="rgb(255,200,0)" stroke="rgb(255,200,0)" stroke-width="1" opacity="0.4745098039215686" d="M 308.5 90 L 309 92.5 L 308 92.5 L 308.5 90 Z " /><path fill="rgb(255,200,0)" stroke="rgb(255,200,0)" stroke-width="1" opacity="0.4745098039215686" d="M 220.5 91 L 223 100.5 L 222 100.5 L 220.5 91 Z " /><path fill="rgb(255,200,0)" stroke="rgb(255,200,0)" stroke-width="1" opacity="0.4745098039215686" d="M 204.5 94 L 205 96.5 L 204 96.5 L 204.5 94 Z " /><path fill="rgb(255,200,0)" stroke="rgb(255,200,0)" stroke-width="1" opacity="0.4745098039215686" d="M 290.5 94 L 291 96.5 L 290 96.5 L 290.5 94 Z " /><path fill="rgb(255,200,0)" stroke="rgb(255,200,0)" stroke-width="1" opacity="0.4745098039215686" d="M 307.5 94 L 308 96.5 L 305.5 104 L 305 101.5 L 307.5 94 Z " /><path fill="rgb(255,200,0)" stroke="rgb(255,200,0)" stroke-width="1" opacity="0.4745098039215686" d="M 174.5 98 L 188 121.5 L 187 121.5 L 174.5 98 Z " /><path fill="rgb(255,200,0)" stroke="rgb(255,200,0)" stroke-width="1" opacity="0.4745098039215686" d="M 205.5 98 L 208 107.5 L 207 107.5 L 205.5 98 Z " /><path fill="rgb(255,200,0)" stroke="rgb(255,200,0)" stroke-width="1" opacity="0.4745098039215686" d="M 289.5 98 L 290 100.5 L 289 100.5 L 289.5 98 Z " /><path fill="rgb(255,200,0)" stroke="rgb(255,200,0)" stroke-width="1" opacity="0.4745098039215686" d="M 223.5 102 L 224 104.5 L 223 104.5 L 223.5 102 Z " /><path fill="rgb(255,200,0)" stroke="rgb(255,200,0)" stroke-width="1" opacity="0.4745098039215686" d="M 288.5 102 L 289 104.5 Q 286.3 106.3 288 112.5 Q 290.5 117 297 117.5 L 293.5 118 L 289 116 L 287 112.5 L 287 105.5 L 288.5 102 Z " /><path fill="rgb(255,200,0)" stroke="rgb(255,200,0)" stroke-width="1" opacity="0.4745098039215686" d="M 159.5 105 L 175.5 131 L 182.5 132 L 187 128.5 L 187.5 126 L 188 128.5 Q 186.1 134.1 177.5 133 L 172 128.5 L 159.5 105 Z " /><path fill="rgb(255,200,0)" stroke="rgb(255,200,0)" stroke-width="1" opacity="0.4745098039215686" d="M 304.5 105 L 305 107.5 L 304 107.5 L 304.5 105 Z " /><path fill="rgb(255,200,0)" stroke="rgb(255,200,0)" stroke-width="1" opacity="0.4745098039215686" d="M 112.5 106 L 117 106.5 L 112.5 107 L 112.5 106 Z " /><path fill="rgb(255,200,0)" stroke="rgb(255,200,0)" stroke-width="1" opacity="0.4745098039215686" d="M 224.5 106 L 225 112.5 L 223 116 L 219.5 117 L 219.5 116 L 224 112.5 L 224.5 106 Z " /><path fill="rgb(255,200,0)" stroke="rgb(255,200,0)" stroke-width="1" opacity="0.4745098039215686" d="M 248.5 106 L 252.5 111 L 254 111.5 L 252.5 112 L 249 109.5 L 248.5 106 Z " /><path fill="rgb(255,200,0)" stroke="rgb(255,200,0)" stroke-width="1" opacity="0.4745098039215686" d="M 263.5 106 L 264 107.5 L 261.5 111 L 258.5 112 L 258.5 111 L 263 107.5 L 263.5 106 Z " /><path fill="rgb(255,200,0)" stroke="rgb(255,200,0)" stroke-width="1" opacity="0.4745098039215686" d="M 395.5 106 Q 401.7 105.4 404 108 Q 406.6 110.3 406 116.5 L 405 116.5 Q 405.9 109.6 401.5 108 L 395.5 107 L 395.5 106 Z " /><path fill="rgb(255,200,0)" stroke="rgb(255,200,0)" stroke-width="1" opacity="0.4745098039215686" d="M 110.5 107 L 107.5 111 L 108 109.5 Q 107.3 107.3 109.5 108 L 110.5 107 Z " /><path fill="rgb(255,200,0)" stroke="rgb(255,200,0)" stroke-width="1" opacity="0.4745098039215686" d="M 118.5 107 L 155 142.5 L 156 144.5 L 118.5 107 Z " /><path fill="rgb(255,200,0)" stroke="rgb(255,200,0)" stroke-width="1" opacity="0.4745098039215686" d="M 392.5 107 L 394 107.5 L 389 111.5 Q 389.8 113.8 387.5 113 L 386 116 L 383 117.5 L 381.5 120 Q 379.3 119.3 380 121.5 L 359.5 142 L 358 142 L 356 145.5 L 356 151.5 L 359.5 156 L 356 153.5 L 355 145.5 L 392.5 107 Z " /><path fill="rgb(255,200,0)" stroke="rgb(255,200,0)" stroke-width="1" opacity="0.4745098039215686" d="M 208.5 109 L 212.5 116 L 214 116.5 L 212.5 117 Q 207.8 114.6 208.5 109 Z " /><path fill="rgb(255,200,0)" stroke="rgb(255,200,0)" stroke-width="1" opacity="0.4745098039215686" d="M 303.5 109 L 304 111.5 L 299.5 117 L 298 116.5 L 302 113.5 L 303.5 109 Z " /><path fill="rgb(255,200,0)" stroke="rgb(255,200,0)" stroke-width="1" opacity="0.4745098039215686" d="M 106.5 112 Q 106 118 109 120.5 L 142.5 154 Q 145 157 151 156.5 L 145.5 157 L 107 119.5 L 106.5 112 Z " /><path fill="rgb(255,200,0)" stroke="rgb(255,200,0)" stroke-width="1" opacity="0.4745098039215686" d="M 215.5 117 L 218 117.5 L 215.5 118 L 215.5 117 Z " /><path fill="rgb(255,200,0)" stroke="rgb(255,200,0)" stroke-width="1" opacity="0.4745098039215686" d="M 404.5 118 L 404 119.5 L 368.5 156 L 361.5 157 L 361.5 156 Q 367.5 157 369.5 154 L 403 120.5 L 404.5 118 Z " /><path fill="rgb(255,200,0)" stroke="rgb(255,200,0)" stroke-width="1" opacity="0.4745098039215686" d="M 240.5 128 L 245 128.5 L 240.5 129 L 240.5 128 Z " /><path fill="rgb(255,200,0)" stroke="rgb(255,200,0)" stroke-width="1" opacity="0.4745098039215686" d="M 267.5 128 L 272 128.5 L 267.5 129 L 267.5 128 Z " /><path fill="rgb(255,200,0)" stroke="rgb(255,200,0)" stroke-width="1" opacity="0.4745098039215686" d="M 233.5 129 L 236 129.5 L 233.5 130 L 233.5 129 Z " /><path fill="rgb(255,200,0)" stroke="rgb(255,200,0)" stroke-width="1" opacity="0.4745098039215686" d="M 276.5 129 L 279 129.5 L 276.5 130 L 276.5 129 Z " /><path fill="rgb(255,200,0)" stroke="rgb(255,200,0)" stroke-width="1" opacity="0.4745098039215686" d="M 228.5 130 L 231 130.5 L 228.5 131 L 228.5 130 Z " /><path fill="rgb(255,200,0)" stroke="rgb(255,200,0)" stroke-width="1" opacity="0.4745098039215686" d="M 281.5 130 L 284 130.5 L 281.5 131 L 281.5 130 Z " /><path fill="rgb(255,200,0)" stroke="rgb(255,200,0)" stroke-width="1" opacity="0.4745098039215686" d="M 51.5 132 L 53 132.5 L 49 134 L 47.5 138 L 47 136.5 L 49.5 133 L 51.5 132 Z " /><path fill="rgb(255,200,0)" stroke="rgb(255,200,0)" stroke-width="1" opacity="0.4745098039215686" d="M 57.5 132 L 123 169.5 L 121.5 169 L 57.5 133 L 57.5 132 Z " /><path fill="rgb(255,200,0)" stroke="rgb(255,200,0)" stroke-width="1" opacity="0.4745098039215686" d="M 453.5 132 L 455 132.5 L 441.5 140 L 442.5 138 L 453.5 132 Z " /><path fill="rgb(255,200,0)" stroke="rgb(255,200,0)" stroke-width="1" opacity="0.4745098039215686" d="M 459.5 132 L 464 134.5 L 465 137.5 L 464 137.5 L 463 134 Q 458.8 134 459.5 132 Z " /><path fill="rgb(255,200,0)" stroke="rgb(255,200,0)" stroke-width="1" opacity="0.4745098039215686" d="M 208.5 136 L 210 136.5 L 206.5 138 L 206.5 137 L 208.5 136 Z " /><path fill="rgb(255,200,0)" stroke="rgb(255,200,0)" stroke-width="1" opacity="0.4745098039215686" d="M 201.5 139 L 203 139.5 L 194.5 144 L 195.5 142 L 201.5 139 Z " /><path fill="rgb(255,200,0)" stroke="rgb(255,200,0)" stroke-width="1" opacity="0.4745098039215686" d="M 309.5 139 L 318 143.5 L 316.5 143 L 309.5 140 L 309.5 139 Z " /><path fill="rgb(255,200,0)" stroke="rgb(255,200,0)" stroke-width="1" opacity="0.4745098039215686" d="M 439.5 140 L 438.5 142 L 434.5 144 L 435.5 142 L 439.5 140 Z " /><path fill="rgb(255,200,0)" stroke="rgb(255,200,0)" stroke-width="1" opacity="0.4745098039215686" d="M 47.5 142 L 52.5 148 L 71 158.5 L 69.5 158 L 48 145.5 L 47.5 142 Z " /><path fill="rgb(255,200,0)" stroke="rgb(255,200,0)" stroke-width="1" opacity="0.4745098039215686" d="M 464.5 142 L 465 143.5 L 462.5 147 L 455.5 151 L 456.5 149 L 463 146 L 464.5 142 Z " /><path fill="rgb(255,200,0)" stroke="rgb(255,200,0)" stroke-width="1" opacity="0.4745098039215686" d="M 432.5 144 L 431.5 146 L 415.5 155 L 416.5 153 L 432.5 144 Z " /><path fill="rgb(255,200,0)" stroke="rgb(255,200,0)" stroke-width="1" opacity="0.4745098039215686" d="M 190.5 145 L 189.5 147 L 180.5 153 L 182.5 150 L 190.5 145 Z " /><path fill="rgb(255,200,0)" stroke="rgb(255,200,0)" stroke-width="1" opacity="0.4745098039215686" d="M 321.5 145 L 325 147.5 L 323.5 147 L 321.5 145 Z " /><path fill="rgb(255,200,0)" stroke="rgb(255,200,0)" stroke-width="1" opacity="0.4745098039215686" d="M 156.5 146 L 157 150.5 L 156 150.5 L 156.5 146 Z " /><path fill="rgb(255,200,0)" stroke="rgb(255,200,0)" stroke-width="1" opacity="0.4745098039215686" d="M 326.5 148 L 327.5 150 L 326.5 148 Z " /><path fill="rgb(255,200,0)" stroke="rgb(255,200,0)" stroke-width="1" opacity="0.4745098039215686" d="M 329.5 150 L 331.5 153 L 329.5 150 Z " /><path fill="rgb(255,200,0)" stroke="rgb(255,200,0)" stroke-width="1" opacity="0.4745098039215686" d="M 453.5 151 L 452.5 153 L 448.5 155 L 449.5 153 L 453.5 151 Z " /><path fill="rgb(255,200,0)" stroke="rgb(255,200,0)" stroke-width="1" opacity="0.4745098039215686" d="M 155.5 152 L 155 153.5 Q 155.8 155.8 153.5 155 L 152 155.5 L 155.5 152 Z " /><path fill="rgb(255,200,0)" stroke="rgb(255,200,0)" stroke-width="1" opacity="0.4745098039215686" d="M 178.5 153 L 175.5 157 L 166.5 165 L 174.5 156 L 178.5 153 Z " /><path fill="rgb(255,200,0)" stroke="rgb(255,200,0)" stroke-width="1" opacity="0.4745098039215686" d="M 333.5 153 L 335.5 156 L 333.5 153 Z " /><path fill="rgb(255,200,0)" stroke="rgb(255,200,0)" stroke-width="1" opacity="0.4745098039215686" d="M 413.5 155 L 412.5 157 L 381 175.5 L 380 182.5 L 383.5 187 L 386 187.5 L 383.5 188 Q 377.9 186.1 379 177.5 L 383.5 172 L 413.5 155 Z " /><path fill="rgb(255,200,0)" stroke="rgb(255,200,0)" stroke-width="1" opacity="0.4745098039215686" d="M 446.5 155 L 445.5 157 L 429.5 166 L 430.5 164 L 446.5 155 Z " /><path fill="rgb(255,200,0)" stroke="rgb(255,200,0)" stroke-width="1" opacity="0.4745098039215686" d="M 337.5 156 L 344.5 164 L 337.5 156 Z " /><path fill="rgb(255,200,0)" stroke="rgb(255,200,0)" stroke-width="1" opacity="0.4745098039215686" d="M 72.5 159 L 122 187.5 L 120.5 188 L 73.5 161 L 72.5 159 Z " /><path fill="rgb(255,200,0)" stroke="rgb(255,200,0)" stroke-width="1" opacity="0.4745098039215686" d="M 347.5 166 Q 363.8 180.8 373 202.5 L 372 202.5 Q 362.3 180.8 347.5 166 Z " /><path fill="rgb(255,200,0)" stroke="rgb(255,200,0)" stroke-width="1" opacity="0.4745098039215686" d="M 427.5 166 L 426.5 168 L 422.5 170 L 423.5 168 L 427.5 166 Z " /><path fill="rgb(255,200,0)" stroke="rgb(255,200,0)" stroke-width="1" opacity="0.4745098039215686" d="M 163.5 167 L 156.5 175 L 163.5 167 Z " /><path fill="rgb(255,200,0)" stroke="rgb(255,200,0)" stroke-width="1" opacity="0.4745098039215686" d="M 124.5 170 L 132 175.5 L 133 182.5 L 128.5 188 L 126 187.5 L 131 184.5 L 132 177.5 L 128.5 173 Q 124.5 172.5 124.5 170 Z " /><path fill="rgb(255,200,0)" stroke="rgb(255,200,0)" stroke-width="1" opacity="0.4745098039215686" d="M 420.5 170 L 419.5 172 L 403.5 181 L 404.5 179 L 420.5 170 Z " /><path fill="rgb(255,200,0)" stroke="rgb(255,200,0)" stroke-width="1" opacity="0.4745098039215686" d="M 155.5 176 L 153.5 179 L 155.5 176 Z " /><path fill="rgb(255,200,0)" stroke="rgb(255,200,0)" stroke-width="1" opacity="0.4745098039215686" d="M 152.5 180 L 150.5 183 L 152.5 180 Z " /><path fill="rgb(255,200,0)" stroke="rgb(255,200,0)" stroke-width="1" opacity="0.4745098039215686" d="M 401.5 181 L 400.5 183 L 396.5 185 L 397.5 183 L 401.5 181 Z " /><path fill="rgb(255,200,0)" stroke="rgb(255,200,0)" stroke-width="1" opacity="0.4745098039215686" d="M 149.5 184 L 149 185.5 L 145.5 191 L 146 189.5 L 149.5 184 Z " /><path fill="rgb(255,200,0)" stroke="rgb(255,200,0)" stroke-width="1" opacity="0.4745098039215686" d="M 394.5 185 L 393.5 187 L 390.5 188 L 390.5 187 L 394.5 185 Z " /><path fill="rgb(255,200,0)" stroke="rgb(255,200,0)" stroke-width="1" opacity="0.4745098039215686" d="M 143.5 194 L 143 195.5 L 139.5 203 L 139 201.5 L 143.5 194 Z " /><path fill="rgb(255,200,0)" stroke="rgb(255,200,0)" stroke-width="1" opacity="0.4745098039215686" d="M 59.5 196 L 66.5 196 L 74 198.5 L 71.5 199 Q 67.5 196 59.5 197 Q 55 199.5 54.5 206 L 54 202.5 L 57.5 197 L 59.5 196 Z " /><path fill="rgb(255,200,0)" stroke="rgb(255,200,0)" stroke-width="1" opacity="0.4745098039215686" d="M 445.5 196 Q 453.5 194.5 456 198.5 L 457 201.5 L 456 201.5 L 452.5 197 L 445.5 197 L 445.5 196 Z " /><path fill="rgb(255,200,0)" stroke="rgb(255,200,0)" stroke-width="1" opacity="0.4745098039215686" d="M 441.5 197 L 444 197.5 L 438.5 199 L 438.5 198 L 441.5 197 Z " /><path fill="rgb(255,200,0)" stroke="rgb(255,200,0)" stroke-width="1" opacity="0.4745098039215686" d="M 75.5 199 L 78 199.5 L 75.5 200 L 75.5 199 Z " /><path fill="rgb(255,200,0)" stroke="rgb(255,200,0)" stroke-width="1" opacity="0.4745098039215686" d="M 434.5 199 L 437 199.5 L 434.5 200 L 434.5 199 Z " /><path fill="rgb(255,200,0)" stroke="rgb(255,200,0)" stroke-width="1" opacity="0.4745098039215686" d="M 79.5 200 L 89 202.5 L 86.5 203 L 79.5 201 L 79.5 200 Z " /><path fill="rgb(255,200,0)" stroke="rgb(255,200,0)" stroke-width="1" opacity="0.4745098039215686" d="M 430.5 200 L 433 200.5 L 427.5 202 L 427.5 201 L 430.5 200 Z " /><path fill="rgb(255,200,0)" stroke="rgb(255,200,0)" stroke-width="1" opacity="0.4745098039215686" d="M 423.5 202 L 426 202.5 L 423.5 203 L 423.5 202 Z " /><path fill="rgb(255,200,0)" stroke="rgb(255,200,0)" stroke-width="1" opacity="0.4745098039215686" d="M 90.5 203 L 93 203.5 L 90.5 204 L 90.5 203 Z " /><path fill="rgb(255,200,0)" stroke="rgb(255,200,0)" stroke-width="1" opacity="0.4745098039215686" d="M 419.5 203 L 422 203.5 L 419.5 204 L 419.5 203 Z " /><path fill="rgb(255,200,0)" stroke="rgb(255,200,0)" stroke-width="1" opacity="0.4745098039215686" d="M 457.5 203 L 458 205.5 L 457 205.5 L 457.5 203 Z " /><path fill="rgb(255,200,0)" stroke="rgb(255,200,0)" stroke-width="1" opacity="0.4745098039215686" d="M 94.5 204 L 100 205.5 L 97.5 206 L 94.5 205 L 94.5 204 Z " /><path fill="rgb(255,200,0)" stroke="rgb(255,200,0)" stroke-width="1" opacity="0.4745098039215686" d="M 373.5 204 L 377 212.5 L 376 212.5 L 373.5 204 Z " /><path fill="rgb(255,200,0)" stroke="rgb(255,200,0)" stroke-width="1" opacity="0.4745098039215686" d="M 415.5 204 L 418 204.5 L 408.5 207 L 408.5 206 L 415.5 204 Z " /><path fill="rgb(255,200,0)" stroke="rgb(255,200,0)" stroke-width="1" opacity="0.4745098039215686" d="M 101.5 206 L 104 206.5 L 101.5 207 L 101.5 206 Z " /><path fill="rgb(255,200,0)" stroke="rgb(255,200,0)" stroke-width="1" opacity="0.4745098039215686" d="M 137.5 206 L 138 207.5 L 136.5 210 L 136 208.5 L 137.5 206 Z " /><path fill="rgb(255,200,0)" stroke="rgb(255,200,0)" stroke-width="1" opacity="0.4745098039215686" d="M 55.5 207 L 58.5 211 L 63 212.5 L 60.5 213 L 55 208.5 L 55.5 207 Z " /><path fill="rgb(255,200,0)" stroke="rgb(255,200,0)" stroke-width="1" opacity="0.4745098039215686" d="M 105.5 207 L 108 207.5 L 105.5 208 L 105.5 207 Z " /><path fill="rgb(255,200,0)" stroke="rgb(255,200,0)" stroke-width="1" opacity="0.4745098039215686" d="M 404.5 207 L 407 207.5 L 404.5 208 L 404.5 207 Z " /><path fill="rgb(255,200,0)" stroke="rgb(255,200,0)" stroke-width="1" opacity="0.4745098039215686" d="M 456.5 207 L 457 208.5 Q 453.9 213.9 445.5 214 L 445.5 213 Q 453 213 456 208.5 L 456.5 207 Z " /><path fill="rgb(255,200,0)" stroke="rgb(255,200,0)" stroke-width="1" opacity="0.4745098039215686" d="M 109.5 208 Q 115.1 208.5 117 212.5 L 116.5 214 L 113.5 210 L 109.5 209 L 109.5 208 Z " /><path fill="rgb(255,200,0)" stroke="rgb(255,200,0)" stroke-width="1" opacity="0.4745098039215686" d="M 400.5 208 L 403 208.5 L 396 212.5 L 395.5 214 L 395 212.5 L 400.5 208 Z " /><path fill="rgb(255,200,0)" stroke="rgb(255,200,0)" stroke-width="1" opacity="0.4745098039215686" d="M 64.5 213 L 67 213.5 L 64.5 214 L 64.5 213 Z " /><path fill="rgb(255,200,0)" stroke="rgb(255,200,0)" stroke-width="1" opacity="0.4745098039215686" d="M 68.5 214 L 71 214.5 L 68.5 215 L 68.5 214 Z " /><path fill="rgb(255,200,0)" stroke="rgb(255,200,0)" stroke-width="1" opacity="0.4745098039215686" d="M 441.5 214 L 444 214.5 L 441.5 215 L 441.5 214 Z " /><path fill="rgb(255,200,0)" stroke="rgb(255,200,0)" stroke-width="1" opacity="0.4745098039215686" d="M 72.5 215 L 82 217.5 L 79.5 218 L 72.5 216 L 72.5 215 Z " /><path fill="rgb(255,200,0)" stroke="rgb(255,200,0)" stroke-width="1" opacity="0.4745098039215686" d="M 117.5 215 L 118 217.5 L 117 217.5 L 117.5 215 Z " /><path fill="rgb(255,200,0)" stroke="rgb(255,200,0)" stroke-width="1" opacity="0.4745098039215686" d="M 394.5 215 Q 395 221.5 399.5 224 L 409.5 223 L 409.5 224 L 399.5 225 L 396 222.5 Q 393 219.8 394.5 215 Z " /><path fill="rgb(255,200,0)" stroke="rgb(255,200,0)" stroke-width="1" opacity="0.4745098039215686" d="M 437.5 215 L 440 215.5 L 434.5 217 L 434.5 216 L 437.5 215 Z " /><path fill="rgb(255,200,0)" stroke="rgb(255,200,0)" stroke-width="1" opacity="0.4745098039215686" d="M 378.5 217 L 380 222.5 L 379 222.5 L 378.5 217 Z " /><path fill="rgb(255,200,0)" stroke="rgb(255,200,0)" stroke-width="1" opacity="0.4745098039215686" d="M 430.5 217 L 433 217.5 L 430.5 218 L 430.5 217 Z " /><path fill="rgb(255,200,0)" stroke="rgb(255,200,0)" stroke-width="1" opacity="0.4745098039215686" d="M 83.5 218 L 86 218.5 L 83.5 219 L 83.5 218 Z " /><path fill="rgb(255,200,0)" stroke="rgb(255,200,0)" stroke-width="1" opacity="0.4745098039215686" d="M 426.5 218 L 429 218.5 L 426.5 219 L 426.5 218 Z " /><path fill="rgb(255,200,0)" stroke="rgb(255,200,0)" stroke-width="1" opacity="0.4745098039215686" d="M 87.5 219 L 97 221.5 L 94.5 222 L 87.5 220 L 87.5 219 Z " /><path fill="rgb(255,200,0)" stroke="rgb(255,200,0)" stroke-width="1" opacity="0.4745098039215686" d="M 116.5 219 L 117 220.5 L 116 223 L 112.5 225 L 105.5 225 L 102 223.5 L 104.5 223 Q 106.3 225.8 112.5 224 L 116.5 219 Z " /><path fill="rgb(255,200,0)" stroke="rgb(255,200,0)" stroke-width="1" opacity="0.4745098039215686" d="M 419.5 220 L 422 220.5 L 419.5 221 L 419.5 220 Z " /><path fill="rgb(255,200,0)" stroke="rgb(255,200,0)" stroke-width="1" opacity="0.4745098039215686" d="M 415.5 221 L 418 221.5 L 415.5 222 L 415.5 221 Z " /><path fill="rgb(255,200,0)" stroke="rgb(255,200,0)" stroke-width="1" opacity="0.4745098039215686" d="M 98.5 222 L 101 222.5 L 98.5 223 L 98.5 222 Z " /><path fill="rgb(255,200,0)" stroke="rgb(255,200,0)" stroke-width="1" opacity="0.4745098039215686" d="M 411.5 222 L 414 222.5 L 411.5 223 L 411.5 222 Z " /><path fill="rgb(255,200,0)" stroke="rgb(255,200,0)" stroke-width="1" opacity="0.4745098039215686" d="M 380.5 224 L 381 226.5 L 380 226.5 L 380.5 224 Z " /><path fill="rgb(255,200,0)" stroke="rgb(255,200,0)" stroke-width="1" opacity="0.4745098039215686" d="M 130.5 228 L 131 230.5 L 130 230.5 L 130.5 228 Z " /><path fill="rgb(255,200,0)" stroke="rgb(255,200,0)" stroke-width="1" opacity="0.4745098039215686" d="M 381.5 228 L 382 231.5 L 381 231.5 L 381.5 228 Z " /><path fill="rgb(255,200,0)" stroke="rgb(255,200,0)" stroke-width="1" opacity="0.4745098039215686" d="M 129.5 233 L 130 235.5 L 129 235.5 L 129.5 233 Z " /><path fill="rgb(255,200,0)" stroke="rgb(255,200,0)" stroke-width="1" opacity="0.4745098039215686" d="M 382.5 233 L 383 237.5 L 382 237.5 L 382.5 233 Z " /><path fill="rgb(255,200,0)" stroke="rgb(255,200,0)" stroke-width="1" opacity="0.4745098039215686" d="M 128.5 240 L 129 244.5 L 128 244.5 L 128.5 240 Z " /><path fill="rgb(255,200,0)" stroke="rgb(255,200,0)" stroke-width="1" opacity="0.4745098039215686" d="M 383.5 240 L 384 247.5 L 383 247.5 L 383.5 240 Z " /><path fill="rgb(255,200,0)" stroke="rgb(255,200,0)" stroke-width="1" opacity="0.4745098039215686" d="M 20.5 248 L 22 248.5 L 17 252.5 L 16.5 254 L 16 252.5 L 18.5 249 L 20.5 248 Z " /><path fill="rgb(255,200,0)" stroke="rgb(255,200,0)" stroke-width="1" opacity="0.4745098039215686" d="M 106.5 248 L 111 250.5 L 112 253.5 L 111 253.5 L 107.5 249 L 106.5 248 Z " /><path fill="rgb(255,200,0)" stroke="rgb(255,200,0)" stroke-width="1" opacity="0.4745098039215686" d="M 404.5 248 L 406 248.5 L 402 250 L 400.5 254 L 400 252.5 L 402.5 249 L 404.5 248 Z " /><path fill="rgb(255,200,0)" stroke="rgb(255,200,0)" stroke-width="1" opacity="0.4745098039215686" d="M 490.5 248 L 495 250.5 L 496 253.5 L 495 253.5 L 494 250 Q 489.8 250 490.5 248 Z " /><path fill="rgb(255,200,0)" stroke="rgb(255,200,0)" stroke-width="1" opacity="0.4745098039215686" d="M 16.5 258 L 20.5 263 L 22 263.5 L 20.5 264 L 17 261.5 L 16.5 258 Z " /><path fill="rgb(255,200,0)" stroke="rgb(255,200,0)" stroke-width="1" opacity="0.4745098039215686" d="M 111.5 258 L 112 259.5 L 109.5 263 L 106.5 264 L 106.5 263 L 111 259.5 L 111.5 258 Z " /><path fill="rgb(255,200,0)" stroke="rgb(255,200,0)" stroke-width="1" opacity="0.4745098039215686" d="M 400.5 258 L 402 262 L 406 263.5 L 404.5 264 L 401 261.5 L 400.5 258 Z " /><path fill="rgb(255,200,0)" stroke="rgb(255,200,0)" stroke-width="1" opacity="0.4745098039215686" d="M 495.5 258 L 496 259.5 L 493.5 263 L 490.5 264 L 490.5 263 L 494 262 L 495.5 258 Z " /><path fill="rgb(255,200,0)" stroke="rgb(255,200,0)" stroke-width="1" opacity="0.4745098039215686" d="M 383.5 264 L 384 271.5 L 383 271.5 L 383.5 264 Z " /><path fill="rgb(255,200,0)" stroke="rgb(255,200,0)" stroke-width="1" opacity="0.4745098039215686" d="M 128.5 267 L 129 271.5 L 128 271.5 L 128.5 267 Z " /><path fill="rgb(255,200,0)" stroke="rgb(255,200,0)" stroke-width="1" opacity="0.4745098039215686" d="M 382.5 274 L 383 278.5 L 382 278.5 L 382.5 274 Z " /><path fill="rgb(255,200,0)" stroke="rgb(255,200,0)" stroke-width="1" opacity="0.4745098039215686" d="M 129.5 276 L 130 278.5 L 129 278.5 L 129.5 276 Z " /><path fill="rgb(255,200,0)" stroke="rgb(255,200,0)" stroke-width="1" opacity="0.4745098039215686" d="M 381.5 280 L 382 283.5 L 381 283.5 L 381.5 280 Z " /><path fill="rgb(255,200,0)" stroke="rgb(255,200,0)" stroke-width="1" opacity="0.4745098039215686" d="M 130.5 281 L 131 283.5 L 130 283.5 L 130.5 281 Z " /><path fill="rgb(255,200,0)" stroke="rgb(255,200,0)" stroke-width="1" opacity="0.4745098039215686" d="M 380.5 285 L 381 287.5 L 380 287.5 L 380.5 285 Z " /><path fill="rgb(255,200,0)" stroke="rgb(255,200,0)" stroke-width="1" opacity="0.4745098039215686" d="M 106.5 287 Q 115.5 285.5 117 291.5 L 116.5 293 L 112.5 288 L 106.5 288 L 106.5 287 Z " /><path fill="rgb(255,200,0)" stroke="rgb(255,200,0)" stroke-width="1" opacity="0.4745098039215686" d="M 399.5 287 L 406 287.5 Q 398 286.5 396 291.5 L 394.5 297 L 394 293.5 L 396 289 L 399.5 287 Z " /><path fill="rgb(255,200,0)" stroke="rgb(255,200,0)" stroke-width="1" opacity="0.4745098039215686" d="M 102.5 288 L 105 288.5 L 102.5 289 L 102.5 288 Z " /><path fill="rgb(255,200,0)" stroke="rgb(255,200,0)" stroke-width="1" opacity="0.4745098039215686" d="M 407.5 288 L 410 288.5 L 407.5 289 L 407.5 288 Z " /><path fill="rgb(255,200,0)" stroke="rgb(255,200,0)" stroke-width="1" opacity="0.4745098039215686" d="M 98.5 289 L 101 289.5 L 98.5 290 L 98.5 289 Z " /><path fill="rgb(255,200,0)" stroke="rgb(255,200,0)" stroke-width="1" opacity="0.4745098039215686" d="M 379.5 289 L 380 291.5 L 378.5 295 L 378 292.5 L 379.5 289 Z " /><path fill="rgb(255,200,0)" stroke="rgb(255,200,0)" stroke-width="1" opacity="0.4745098039215686" d="M 411.5 289 L 414 289.5 L 411.5 290 L 411.5 289 Z " /><path fill="rgb(255,200,0)" stroke="rgb(255,200,0)" stroke-width="1" opacity="0.4745098039215686" d="M 94.5 290 L 97 290.5 L 91.5 292 L 91.5 291 L 94.5 290 Z " /><path fill="rgb(255,200,0)" stroke="rgb(255,200,0)" stroke-width="1" opacity="0.4745098039215686" d="M 415.5 290 L 421 291.5 L 418.5 292 L 415.5 291 L 415.5 290 Z " /><path fill="rgb(255,200,0)" stroke="rgb(255,200,0)" stroke-width="1" opacity="0.4745098039215686" d="M 87.5 292 L 90 292.5 L 87.5 293 L 87.5 292 Z " /><path fill="rgb(255,200,0)" stroke="rgb(255,200,0)" stroke-width="1" opacity="0.4745098039215686" d="M 422.5 292 L 425 292.5 L 422.5 293 L 422.5 292 Z " /><path fill="rgb(255,200,0)" stroke="rgb(255,200,0)" stroke-width="1" opacity="0.4745098039215686" d="M 83.5 293 L 86 293.5 L 83.5 294 L 83.5 293 Z " /><path fill="rgb(255,200,0)" stroke="rgb(255,200,0)" stroke-width="1" opacity="0.4745098039215686" d="M 426.5 293 L 436 295.5 L 433.5 296 L 426.5 294 L 426.5 293 Z " /><path fill="rgb(255,200,0)" stroke="rgb(255,200,0)" stroke-width="1" opacity="0.4745098039215686" d="M 79.5 294 L 82 294.5 L 76.5 296 L 76.5 295 L 79.5 294 Z " /><path fill="rgb(255,200,0)" stroke="rgb(255,200,0)" stroke-width="1" opacity="0.4745098039215686" d="M 117.5 294 L 118 296.5 L 117 296.5 L 117.5 294 Z " /><path fill="rgb(255,200,0)" stroke="rgb(255,200,0)" stroke-width="1" opacity="0.4745098039215686" d="M 72.5 296 L 75 296.5 L 72.5 297 L 72.5 296 Z " /><path fill="rgb(255,200,0)" stroke="rgb(255,200,0)" stroke-width="1" opacity="0.4745098039215686" d="M 437.5 296 L 440 296.5 L 437.5 297 L 437.5 296 Z " /><path fill="rgb(255,200,0)" stroke="rgb(255,200,0)" stroke-width="1" opacity="0.4745098039215686" d="M 68.5 297 L 71 297.5 L 65.5 299 L 65.5 298 L 68.5 297 Z " /><path fill="rgb(255,200,0)" stroke="rgb(255,200,0)" stroke-width="1" opacity="0.4745098039215686" d="M 441.5 297 L 444 297.5 L 441.5 298 L 441.5 297 Z " /><path fill="rgb(255,200,0)" stroke="rgb(255,200,0)" stroke-width="1" opacity="0.4745098039215686" d="M 116.5 298 L 117 299.5 Q 115 303.6 109.5 304 L 109.5 303 Q 114.3 302.8 116 299.5 L 116.5 298 Z " /><path fill="rgb(255,200,0)" stroke="rgb(255,200,0)" stroke-width="1" opacity="0.4745098039215686" d="M 395.5 298 L 398.5 302 L 403 303.5 L 400.5 304 L 395 299.5 L 395.5 298 Z " /><path fill="rgb(255,200,0)" stroke="rgb(255,200,0)" stroke-width="1" opacity="0.4745098039215686" d="M 445.5 298 L 451 299.5 L 448.5 300 L 445.5 299 L 445.5 298 Z " /><path fill="rgb(255,200,0)" stroke="rgb(255,200,0)" stroke-width="1" opacity="0.4745098039215686" d="M 61.5 299 L 64 299.5 L 61.5 300 L 61.5 299 Z " /><path fill="rgb(255,200,0)" stroke="rgb(255,200,0)" stroke-width="1" opacity="0.4745098039215686" d="M 376.5 299 L 377 300.5 Q 363.9 334.9 337.5 356 L 324.5 365 L 325.5 363 Q 342.2 353.2 354 338.5 Q 368.5 322 376.5 299 Z " /><path fill="rgb(255,200,0)" stroke="rgb(255,200,0)" stroke-width="1" opacity="0.4745098039215686" d="M 58.5 300 L 60 300.5 L 56 303.5 L 55.5 305 L 55 303.5 L 58.5 300 Z " /><path fill="rgb(255,200,0)" stroke="rgb(255,200,0)" stroke-width="1" opacity="0.4745098039215686" d="M 452.5 300 L 457 303.5 L 456.5 305 L 453.5 301 L 452.5 300 Z " /><path fill="rgb(255,200,0)" stroke="rgb(255,200,0)" stroke-width="1" opacity="0.4745098039215686" d="M 105.5 304 L 108 304.5 L 98.5 307 L 98.5 306 L 105.5 304 Z " /><path fill="rgb(255,200,0)" stroke="rgb(255,200,0)" stroke-width="1" opacity="0.4745098039215686" d="M 404.5 304 L 410 305.5 L 407.5 306 L 404.5 305 L 404.5 304 Z " /><path fill="rgb(255,200,0)" stroke="rgb(255,200,0)" stroke-width="1" opacity="0.4745098039215686" d="M 54.5 306 Q 55 312.5 59.5 315 L 67 315.5 L 59.5 316 L 56 313.5 Q 53 310.8 54.5 306 Z " /><path fill="rgb(255,200,0)" stroke="rgb(255,200,0)" stroke-width="1" opacity="0.4745098039215686" d="M 411.5 306 L 414 306.5 L 411.5 307 L 411.5 306 Z " /><path fill="rgb(255,200,0)" stroke="rgb(255,200,0)" stroke-width="1" opacity="0.4745098039215686" d="M 457.5 306 L 458 308.5 L 457 308.5 L 457.5 306 Z " /><path fill="rgb(255,200,0)" stroke="rgb(255,200,0)" stroke-width="1" opacity="0.4745098039215686" d="M 94.5 307 L 97 307.5 L 94.5 308 L 94.5 307 Z " /><path fill="rgb(255,200,0)" stroke="rgb(255,200,0)" stroke-width="1" opacity="0.4745098039215686" d="M 415.5 307 L 418 307.5 L 415.5 308 L 415.5 307 Z " /><path fill="rgb(255,200,0)" stroke="rgb(255,200,0)" stroke-width="1" opacity="0.4745098039215686" d="M 90.5 308 L 93 308.5 L 83.5 311 L 83.5 310 L 90.5 308 Z " /><path fill="rgb(255,200,0)" stroke="rgb(255,200,0)" stroke-width="1" opacity="0.4745098039215686" d="M 419.5 308 L 425 309.5 L 422.5 310 L 419.5 309 L 419.5 308 Z " /><path fill="rgb(255,200,0)" stroke="rgb(255,200,0)" stroke-width="1" opacity="0.4745098039215686" d="M 139.5 309 L 144 317.5 L 142 316.5 L 139.5 309 Z " /><path fill="rgb(255,200,0)" stroke="rgb(255,200,0)" stroke-width="1" opacity="0.4745098039215686" d="M 426.5 310 L 429 310.5 L 426.5 311 L 426.5 310 Z " /><path fill="rgb(255,200,0)" stroke="rgb(255,200,0)" stroke-width="1" opacity="0.4745098039215686" d="M 456.5 310 L 457 311.5 L 454.5 315 L 450.5 316 L 450.5 315 Q 455.5 315.5 456 311.5 L 456.5 310 Z " /><path fill="rgb(255,200,0)" stroke="rgb(255,200,0)" stroke-width="1" opacity="0.4745098039215686" d="M 79.5 311 L 82 311.5 L 79.5 312 L 79.5 311 Z " /><path fill="rgb(255,200,0)" stroke="rgb(255,200,0)" stroke-width="1" opacity="0.4745098039215686" d="M 430.5 311 L 433 311.5 L 430.5 312 L 430.5 311 Z " /><path fill="rgb(255,200,0)" stroke="rgb(255,200,0)" stroke-width="1" opacity="0.4745098039215686" d="M 75.5 312 L 78 312.5 L 68.5 315 L 68.5 314 L 75.5 312 Z " /><path fill="rgb(255,200,0)" stroke="rgb(255,200,0)" stroke-width="1" opacity="0.4745098039215686" d="M 434.5 312 L 440 313.5 L 437.5 314 L 434.5 313 L 434.5 312 Z " /><path fill="rgb(255,200,0)" stroke="rgb(255,200,0)" stroke-width="1" opacity="0.4745098039215686" d="M 441.5 314 L 444 314.5 L 441.5 315 L 441.5 314 Z " /><path fill="rgb(255,200,0)" stroke="rgb(255,200,0)" stroke-width="1" opacity="0.4745098039215686" d="M 445.5 315 L 449 315.5 L 445.5 316 L 445.5 315 Z " /><path fill="rgb(255,200,0)" stroke="rgb(255,200,0)" stroke-width="1" opacity="0.4745098039215686" d="M 145.5 321 L 153 331.5 L 150 329.5 L 145.5 321 Z " /><path fill="rgb(255,200,0)" stroke="rgb(255,200,0)" stroke-width="1" opacity="0.4745098039215686" d="M 120.5 324 L 122 324.5 L 79.5 349 L 80.5 347 L 120.5 324 Z " /><path fill="rgb(255,200,0)" stroke="rgb(255,200,0)" stroke-width="1" opacity="0.4745098039215686" d="M 126.5 324 Q 131.5 323.5 132 327.5 L 133 334.5 L 128.5 340 L 86.5 364 L 87.5 362 L 131 336.5 L 132 329.5 L 128.5 325 Q 125.5 325.5 126.5 324 Z " /><path fill="rgb(255,200,0)" stroke="rgb(255,200,0)" stroke-width="1" opacity="0.4745098039215686" d="M 383.5 324 L 386 324.5 L 381 327.5 L 380 334.5 L 383.5 339 L 407 352.5 L 405.5 352 L 383.5 340 L 380 336.5 L 379 329.5 L 383.5 324 Z " /><path fill="rgb(255,200,0)" stroke="rgb(255,200,0)" stroke-width="1" opacity="0.4745098039215686" d="M 390.5 324 L 395 326.5 L 393.5 326 Q 389.8 325.7 390.5 324 Z " /><path fill="rgb(255,200,0)" stroke="rgb(255,200,0)" stroke-width="1" opacity="0.4745098039215686" d="M 396.5 327 L 414 337.5 L 412.5 337 L 397.5 329 L 396.5 327 Z " /><path fill="rgb(255,200,0)" stroke="rgb(255,200,0)" stroke-width="1" opacity="0.4745098039215686" d="M 153.5 333 L 155.5 336 L 153.5 333 Z " /><path fill="rgb(255,200,0)" stroke="rgb(255,200,0)" stroke-width="1" opacity="0.4745098039215686" d="M 156.5 337 L 174.5 356 L 156.5 337 Z " /><path fill="rgb(255,200,0)" stroke="rgb(255,200,0)" stroke-width="1" opacity="0.4745098039215686" d="M 415.5 338 L 421 341.5 L 419.5 341 Q 415.5 340.5 415.5 338 Z " /><path fill="rgb(255,200,0)" stroke="rgb(255,200,0)" stroke-width="1" opacity="0.4745098039215686" d="M 422.5 342 L 440 352.5 L 438.5 352 L 423.5 344 L 422.5 342 Z " /><path fill="rgb(255,200,0)" stroke="rgb(255,200,0)" stroke-width="1" opacity="0.4745098039215686" d="M 77.5 349 L 76.5 351 L 53.5 364 L 54.5 362 L 77.5 349 Z " /><path fill="rgb(255,200,0)" stroke="rgb(255,200,0)" stroke-width="1" opacity="0.4745098039215686" d="M 408.5 353 L 452 378.5 L 450.5 378 L 409.5 355 L 408.5 353 Z " /><path fill="rgb(255,200,0)" stroke="rgb(255,200,0)" stroke-width="1" opacity="0.4745098039215686" d="M 441.5 353 L 464 366.5 L 465 370.5 L 464 370.5 L 464 368.5 L 459.5 364 L 442.5 355 L 441.5 353 Z " /><path fill="rgb(255,200,0)" stroke="rgb(255,200,0)" stroke-width="1" opacity="0.4745098039215686" d="M 146.5 355 L 151 355.5 L 146.5 356 L 146.5 355 Z " /><path fill="rgb(255,200,0)" stroke="rgb(255,200,0)" stroke-width="1" opacity="0.4745098039215686" d="M 361.5 355 L 366 355.5 L 361.5 356 L 361.5 355 Z " /><path fill="rgb(255,200,0)" stroke="rgb(255,200,0)" stroke-width="1" opacity="0.4745098039215686" d="M 143.5 356 L 145 356.5 L 140 360.5 L 138.5 363 L 135.5 365 L 133 369 Q 130.3 367.9 131 370.5 L 110.5 391 L 109 391 L 107.5 394 L 107 392.5 L 143.5 356 Z " /><path fill="rgb(255,200,0)" stroke="rgb(255,200,0)" stroke-width="1" opacity="0.4745098039215686" d="M 152.5 356 L 155 357 L 156 359.5 L 152.5 356 Z " /><path fill="rgb(255,200,0)" stroke="rgb(255,200,0)" stroke-width="1" opacity="0.4745098039215686" d="M 176.5 356 L 178.5 359 L 176.5 356 Z " /><path fill="rgb(255,200,0)" stroke="rgb(255,200,0)" stroke-width="1" opacity="0.4745098039215686" d="M 359.5 356 L 356 360.5 Q 354.8 367.2 358 369.5 L 391.5 403 L 394 404.5 L 392.5 405 L 356 368.5 L 355 360.5 L 357 357 L 359.5 356 Z " /><path fill="rgb(255,200,0)" stroke="rgb(255,200,0)" stroke-width="1" opacity="0.4745098039215686" d="M 367.5 356 L 404 391.5 L 405 393.5 L 367.5 356 Z " /><path fill="rgb(255,200,0)" stroke="rgb(255,200,0)" stroke-width="1" opacity="0.4745098039215686" d="M 180.5 359 L 191 366.5 L 189.5 366 Q 182.4 363.7 180.5 359 Z " /><path fill="rgb(255,200,0)" stroke="rgb(255,200,0)" stroke-width="1" opacity="0.4745098039215686" d="M 156.5 361 L 157 365.5 L 156 365.5 L 156.5 361 Z " /><path fill="rgb(255,200,0)" stroke="rgb(255,200,0)" stroke-width="1" opacity="0.4745098039215686" d="M 51.5 364 L 48 368.5 L 47.5 370 L 47 368.5 L 49.5 365 L 51.5 364 Z " /><path fill="rgb(255,200,0)" stroke="rgb(255,200,0)" stroke-width="1" opacity="0.4745098039215686" d="M 84.5 364 L 83.5 366 L 60.5 379 L 61.5 377 L 84.5 364 Z " /><path fill="rgb(255,200,0)" stroke="rgb(255,200,0)" stroke-width="1" opacity="0.4745098039215686" d="M 322.5 365 L 321.5 367 L 309.5 373 L 309.5 372 L 322.5 365 Z " /><path fill="rgb(255,200,0)" stroke="rgb(255,200,0)" stroke-width="1" opacity="0.4745098039215686" d="M 155.5 367 L 155 368.5 L 119.5 405 L 118 404.5 L 154 369.5 L 155.5 367 Z " /><path fill="rgb(255,200,0)" stroke="rgb(255,200,0)" stroke-width="1" opacity="0.4745098039215686" d="M 196.5 369 L 201 371.5 L 199.5 372 L 196.5 369 Z " /><path fill="rgb(255,200,0)" stroke="rgb(255,200,0)" stroke-width="1" opacity="0.4745098039215686" d="M 202.5 372 L 208 374.5 L 206.5 375 L 202.5 373 L 202.5 372 Z " /><path fill="rgb(255,200,0)" stroke="rgb(255,200,0)" stroke-width="1" opacity="0.4745098039215686" d="M 306.5 373 L 308 373.5 L 299.5 377 L 299.5 376 L 306.5 373 Z " /><path fill="rgb(255,200,0)" stroke="rgb(255,200,0)" stroke-width="1" opacity="0.4745098039215686" d="M 464.5 373 L 465 375.5 L 463 379 L 459.5 380 L 459.5 379 L 464 375.5 L 464.5 373 Z " /><path fill="rgb(255,200,0)" stroke="rgb(255,200,0)" stroke-width="1" opacity="0.4745098039215686" d="M 47.5 374 L 51.5 379 L 53 379.5 L 51.5 380 L 48 377.5 L 47.5 374 Z " /><path fill="rgb(255,200,0)" stroke="rgb(255,200,0)" stroke-width="1" opacity="0.4745098039215686" d="M 209.5 375 L 213 376.5 L 211.5 377 L 209.5 375 Z " /><path fill="rgb(255,200,0)" stroke="rgb(255,200,0)" stroke-width="1" opacity="0.4745098039215686" d="M 214.5 377 L 223 379.5 L 220.5 380 L 214.5 378 L 214.5 377 Z " /><path fill="rgb(255,200,0)" stroke="rgb(255,200,0)" stroke-width="1" opacity="0.4745098039215686" d="M 292.5 378 L 295 378.5 L 289.5 380 L 289.5 379 L 292.5 378 Z " /><path fill="rgb(255,200,0)" stroke="rgb(255,200,0)" stroke-width="1" opacity="0.4745098039215686" d="M 177.5 379 Q 186.1 377.9 188 383.5 L 187.5 386 L 184.5 381 L 177.5 380 L 173 383.5 L 159.5 407 L 160 405.5 L 172 383.5 L 175.5 380 L 177.5 379 Z " /><path fill="rgb(255,200,0)" stroke="rgb(255,200,0)" stroke-width="1" opacity="0.4745098039215686" d="M 329.5 379 Q 338.1 377.9 340 383.5 L 349 399.5 L 347 398.5 L 336.5 381 L 329.5 380 L 325 383.5 L 324.5 385 L 324 383.5 L 329.5 379 Z " /><path fill="rgb(255,200,0)" stroke="rgb(255,200,0)" stroke-width="1" opacity="0.4745098039215686" d="M 224.5 380 L 227 380.5 L 224.5 381 L 224.5 380 Z " /><path fill="rgb(255,200,0)" stroke="rgb(255,200,0)" stroke-width="1" opacity="0.4745098039215686" d="M 285.5 380 L 288 380.5 L 285.5 381 L 285.5 380 Z " /><path fill="rgb(255,200,0)" stroke="rgb(255,200,0)" stroke-width="1" opacity="0.4745098039215686" d="M 228.5 381 L 232 381.5 L 228.5 382 L 228.5 381 Z " /><path fill="rgb(255,200,0)" stroke="rgb(255,200,0)" stroke-width="1" opacity="0.4745098039215686" d="M 280.5 381 L 284 381.5 L 280.5 382 L 280.5 381 Z " /><path fill="rgb(255,200,0)" stroke="rgb(255,200,0)" stroke-width="1" opacity="0.4745098039215686" d="M 233.5 382 L 238 382.5 L 233.5 383 L 233.5 382 Z " /><path fill="rgb(255,200,0)" stroke="rgb(255,200,0)" stroke-width="1" opacity="0.4745098039215686" d="M 274.5 382 L 279 382.5 L 274.5 383 L 274.5 382 Z " /><path fill="rgb(255,200,0)" stroke="rgb(255,200,0)" stroke-width="1" opacity="0.4745098039215686" d="M 240.5 383 L 248 383.5 L 240.5 384 L 240.5 383 Z " /><path fill="rgb(255,200,0)" stroke="rgb(255,200,0)" stroke-width="1" opacity="0.4745098039215686" d="M 264.5 383 L 272 383.5 L 264.5 384 L 264.5 383 Z " /><path fill="rgb(255,200,0)" stroke="rgb(255,200,0)" stroke-width="1" opacity="0.4745098039215686" d="M 187.5 390 L 188 391.5 L 174.5 414 L 175 412.5 L 187.5 390 Z " /><path fill="rgb(255,200,0)" stroke="rgb(255,200,0)" stroke-width="1" opacity="0.4745098039215686" d="M 324.5 390 L 338 413.5 L 336 412.5 L 325 393.5 L 324.5 390 Z " /><path fill="rgb(255,200,0)" stroke="rgb(255,200,0)" stroke-width="1" opacity="0.4745098039215686" d="M 215.5 394 L 218 394.5 L 215.5 395 L 215.5 394 Z " /><path fill="rgb(255,200,0)" stroke="rgb(255,200,0)" stroke-width="1" opacity="0.4745098039215686" d="M 294.5 394 L 297 394.5 L 294.5 395 L 294.5 394 Z " /><path fill="rgb(255,200,0)" stroke="rgb(255,200,0)" stroke-width="1" opacity="0.4745098039215686" d="M 106.5 395 L 107 399.5 L 106 399.5 L 106.5 395 Z " /><path fill="rgb(255,200,0)" stroke="rgb(255,200,0)" stroke-width="1" opacity="0.4745098039215686" d="M 212.5 395 L 214 395.5 L 210 398.5 L 208.5 403 L 208 400.5 L 212.5 395 Z " /><path fill="rgb(255,200,0)" stroke="rgb(255,200,0)" stroke-width="1" opacity="0.4745098039215686" d="M 219.5 395 L 224 398.5 L 220.5 396 L 219.5 395 Z " /><path fill="rgb(255,200,0)" stroke="rgb(255,200,0)" stroke-width="1" opacity="0.4745098039215686" d="M 291.5 395 L 293 395.5 L 288 399.5 L 289 409.5 L 288 409.5 L 287 399.5 L 289 396 L 291.5 395 Z " /><path fill="rgb(255,200,0)" stroke="rgb(255,200,0)" stroke-width="1" opacity="0.4745098039215686" d="M 298.5 395 L 303 398.5 L 304 402.5 L 303 402.5 Q 302.8 397.8 299.5 396 L 298.5 395 Z " /><path fill="rgb(255,200,0)" stroke="rgb(255,200,0)" stroke-width="1" opacity="0.4745098039215686" d="M 405.5 395 L 406 399.5 L 405 399.5 L 405.5 395 Z " /><path fill="rgb(255,200,0)" stroke="rgb(255,200,0)" stroke-width="1" opacity="0.4745098039215686" d="M 224.5 400 L 225 405.5 L 224 405.5 L 224.5 400 Z " /><path fill="rgb(255,200,0)" stroke="rgb(255,200,0)" stroke-width="1" opacity="0.4745098039215686" d="M 252.5 400 L 254 400.5 L 250 402 L 248.5 406 L 248 404.5 L 250.5 401 L 252.5 400 Z " /><path fill="rgb(255,200,0)" stroke="rgb(255,200,0)" stroke-width="1" opacity="0.4745098039215686" d="M 258.5 400 L 263 402.5 L 264 405.5 L 263 405.5 L 262 402 Q 257.8 402 258.5 400 Z " /><path fill="rgb(255,200,0)" stroke="rgb(255,200,0)" stroke-width="1" opacity="0.4745098039215686" d="M 107.5 401 L 110.5 405 L 108 404 L 107.5 401 Z " /><path fill="rgb(255,200,0)" stroke="rgb(255,200,0)" stroke-width="1" opacity="0.4745098039215686" d="M 349.5 401 L 364 425.5 L 362 424.5 L 349.5 401 Z " /><path fill="rgb(255,200,0)" stroke="rgb(255,200,0)" stroke-width="1" opacity="0.4745098039215686" d="M 404.5 401 L 404 402.5 Q 404.8 404.8 402.5 404 L 401 404.5 L 404.5 401 Z " /><path fill="rgb(255,200,0)" stroke="rgb(255,200,0)" stroke-width="1" opacity="0.4745098039215686" d="M 207.5 404 L 208 406.5 L 205.5 414 L 205 411.5 L 207.5 404 Z " /><path fill="rgb(255,200,0)" stroke="rgb(255,200,0)" stroke-width="1" opacity="0.4745098039215686" d="M 304.5 404 L 305 406.5 L 304 406.5 L 304.5 404 Z " /><path fill="rgb(255,200,0)" stroke="rgb(255,200,0)" stroke-width="1" opacity="0.4745098039215686" d="M 112.5 405 L 117 405.5 L 112.5 406 L 112.5 405 Z " /><path fill="rgb(255,200,0)" stroke="rgb(255,200,0)" stroke-width="1" opacity="0.4745098039215686" d="M 395.5 405 L 400 405.5 L 395.5 406 L 395.5 405 Z " /><path fill="rgb(255,200,0)" stroke="rgb(255,200,0)" stroke-width="1" opacity="0.4745098039215686" d="M 223.5 407 L 224 409.5 L 223 409.5 L 223.5 407 Z " /><path fill="rgb(255,200,0)" stroke="rgb(255,200,0)" stroke-width="1" opacity="0.4745098039215686" d="M 158.5 408 L 158 409.5 L 133.5 452 L 134 450.5 L 158.5 408 Z " /><path fill="rgb(255,200,0)" stroke="rgb(255,200,0)" stroke-width="1" opacity="0.4745098039215686" d="M 305.5 408 L 308 417.5 L 307 417.5 L 305.5 408 Z " /><path fill="rgb(255,200,0)" stroke="rgb(255,200,0)" stroke-width="1" opacity="0.4745098039215686" d="M 222.5 411 L 223 413.5 L 222 413.5 L 222.5 411 Z " /><path fill="rgb(255,200,0)" stroke="rgb(255,200,0)" stroke-width="1" opacity="0.4745098039215686" d="M 289.5 411 L 290 413.5 L 289 413.5 L 289.5 411 Z " /><path fill="rgb(255,200,0)" stroke="rgb(255,200,0)" stroke-width="1" opacity="0.4745098039215686" d="M 173.5 415 L 173 416.5 L 159.5 440 L 160 438.5 L 173.5 415 Z " /><path fill="rgb(255,200,0)" stroke="rgb(255,200,0)" stroke-width="1" opacity="0.4745098039215686" d="M 204.5 415 L 205 417.5 L 204 417.5 L 204.5 415 Z " /><path fill="rgb(255,200,0)" stroke="rgb(255,200,0)" stroke-width="1" opacity="0.4745098039215686" d="M 221.5 415 L 222 417.5 L 220.5 421 L 220 418.5 L 221.5 415 Z " /><path fill="rgb(255,200,0)" stroke="rgb(255,200,0)" stroke-width="1" opacity="0.4745098039215686" d="M 290.5 415 L 291 417.5 L 290 417.5 L 290.5 415 Z " /><path fill="rgb(255,200,0)" stroke="rgb(255,200,0)" stroke-width="1" opacity="0.4745098039215686" d="M 338.5 415 L 349 432.5 L 347 431.5 L 338.5 415 Z " /><path fill="rgb(255,200,0)" stroke="rgb(255,200,0)" stroke-width="1" opacity="0.4745098039215686" d="M 203.5 419 L 204 421.5 L 201.5 429 L 201 426.5 L 203.5 419 Z " /><path fill="rgb(255,200,0)" stroke="rgb(255,200,0)" stroke-width="1" opacity="0.4745098039215686" d="M 291.5 419 L 293 424.5 L 292 424.5 L 291.5 419 Z " /><path fill="rgb(255,200,0)" stroke="rgb(255,200,0)" stroke-width="1" opacity="0.4745098039215686" d="M 308.5 419 L 309 421.5 L 308 421.5 L 308.5 419 Z " /><path fill="rgb(255,200,0)" stroke="rgb(255,200,0)" stroke-width="1" opacity="0.4745098039215686" d="M 219.5 422 L 220 424.5 L 219 424.5 L 219.5 422 Z " /><path fill="rgb(255,200,0)" stroke="rgb(255,200,0)" stroke-width="1" opacity="0.4745098039215686" d="M 309.5 423 L 312 432.5 L 311 432.5 L 309.5 423 Z " /><path fill="rgb(255,200,0)" stroke="rgb(255,200,0)" stroke-width="1" opacity="0.4745098039215686" d="M 218.5 426 L 219 428.5 L 218 428.5 L 218.5 426 Z " /><path fill="rgb(255,200,0)" stroke="rgb(255,200,0)" stroke-width="1" opacity="0.4745098039215686" d="M 293.5 426 L 294 428.5 L 293 428.5 L 293.5 426 Z " /><path fill="rgb(255,200,0)" stroke="rgb(255,200,0)" stroke-width="1" opacity="0.4745098039215686" d="M 364.5 427 L 379 451.5 L 377 450.5 L 364.5 427 Z " /><path fill="rgb(255,200,0)" stroke="rgb(255,200,0)" stroke-width="1" opacity="0.4745098039215686" d="M 200.5 430 L 201 432.5 L 200 432.5 L 200.5 430 Z " /><path fill="rgb(255,200,0)" stroke="rgb(255,200,0)" stroke-width="1" opacity="0.4745098039215686" d="M 217.5 430 L 218 432.5 L 216.5 436 L 216 433.5 L 217.5 430 Z " /><path fill="rgb(255,200,0)" stroke="rgb(255,200,0)" stroke-width="1" opacity="0.4745098039215686" d="M 294.5 430 L 295 432.5 L 294 432.5 L 294.5 430 Z " /><path fill="rgb(255,200,0)" stroke="rgb(255,200,0)" stroke-width="1" opacity="0.4745098039215686" d="M 199.5 434 L 200 436.5 L 198.5 440 L 198 437.5 L 199.5 434 Z " /><path fill="rgb(255,200,0)" stroke="rgb(255,200,0)" stroke-width="1" opacity="0.4745098039215686" d="M 295.5 434 L 297 439.5 L 296 439.5 L 295.5 434 Z " /><path fill="rgb(255,200,0)" stroke="rgb(255,200,0)" stroke-width="1" opacity="0.4745098039215686" d="M 312.5 434 L 313 436.5 L 312 436.5 L 312.5 434 Z " /><path fill="rgb(255,200,0)" stroke="rgb(255,200,0)" stroke-width="1" opacity="0.4745098039215686" d="M 349.5 434 L 364 458.5 L 362 457.5 L 349.5 434 Z " /><path fill="rgb(255,200,0)" stroke="rgb(255,200,0)" stroke-width="1" opacity="0.4745098039215686" d="M 215.5 437 L 216 439.5 L 215 439.5 L 215.5 437 Z " /><path fill="rgb(255,200,0)" stroke="rgb(255,200,0)" stroke-width="1" opacity="0.4745098039215686" d="M 313.5 438 L 316 445.5 L 316 452.5 L 313.5 456 L 306.5 458 L 306.5 457 Q 312.9 456.9 315 452.5 L 315 445.5 L 313.5 438 Z " /><path fill="rgb(255,200,0)" stroke="rgb(255,200,0)" stroke-width="1" opacity="0.4745098039215686" d="M 158.5 441 L 158 442.5 L 147 463 L 141.5 465 L 141.5 464 L 143.5 464 L 148 459.5 L 158.5 441 Z " /><path fill="rgb(255,200,0)" stroke="rgb(255,200,0)" stroke-width="1" opacity="0.4745098039215686" d="M 197.5 441 L 198 443.5 L 197 443.5 L 197.5 441 Z " /><path fill="rgb(255,200,0)" stroke="rgb(255,200,0)" stroke-width="1" opacity="0.4745098039215686" d="M 214.5 441 L 215 443.5 L 214 443.5 L 214.5 441 Z " /><path fill="rgb(255,200,0)" stroke="rgb(255,200,0)" stroke-width="1" opacity="0.4745098039215686" d="M 297.5 441 L 298 443.5 L 297 443.5 L 297.5 441 Z " /><path fill="rgb(255,200,0)" stroke="rgb(255,200,0)" stroke-width="1" opacity="0.4745098039215686" d="M 196.5 445 L 197 447.5 L 196 447.5 L 196.5 445 Z " /><path fill="rgb(255,200,0)" stroke="rgb(255,200,0)" stroke-width="1" opacity="0.4745098039215686" d="M 213.5 445 L 214 447.5 L 212.5 451 L 212 448.5 L 213.5 445 Z " /><path fill="rgb(255,200,0)" stroke="rgb(255,200,0)" stroke-width="1" opacity="0.4745098039215686" d="M 298.5 445 L 299 447.5 L 298 447.5 L 298.5 445 Z " /><path fill="rgb(255,200,0)" stroke="rgb(255,200,0)" stroke-width="1" opacity="0.4745098039215686" d="M 299.5 449 L 303.5 456 L 305 456.5 L 303.5 457 Q 298.8 454.6 299.5 449 Z " /><path fill="rgb(255,200,0)" stroke="rgb(255,200,0)" stroke-width="1" opacity="0.4745098039215686" d="M 196.5 450 L 198 455 L 206 457.5 L 202.5 458 L 197 454.5 L 196.5 450 Z " /><path fill="rgb(255,200,0)" stroke="rgb(255,200,0)" stroke-width="1" opacity="0.4745098039215686" d="M 211.5 452 L 212 453.5 L 207.5 457 L 207.5 456 L 211 453.5 L 211.5 452 Z " /><path fill="rgb(255,200,0)" stroke="rgb(255,200,0)" stroke-width="1" opacity="0.4745098039215686" d="M 132.5 459 L 136.5 464 L 139 464.5 L 136.5 465 L 133 462.5 L 132.5 459 Z " /><path fill="rgb(255,200,0)" stroke="rgb(255,200,0)" stroke-width="1" opacity="0.4745098039215686" d="M 379.5 459 L 380 460.5 L 377.5 464 L 373.5 465 L 373.5 464 Q 378.5 464.5 379 460.5 L 379.5 459 Z " /><path fill="rgb(255,200,0)" stroke="rgb(255,200,0)" stroke-width="1" opacity="0.4745098039215686" d="M 364.5 460 Q 365.9 464.1 371 464.5 L 368.5 465 L 365 462.5 L 364.5 460 Z " /><path fill="rgb(255,200,0)" stroke="rgb(255,200,0)" stroke-width="1" opacity="0.4745098039215686" d="M 248.5 490 L 250 494 L 254 495.5 L 252.5 496 L 249 493.5 L 248.5 490 Z " /><path fill="rgb(255,200,0)" stroke="rgb(255,200,0)" stroke-width="1" opacity="0.4745098039215686" d="M 263.5 490 L 264 491.5 L 261.5 495 L 258.5 496 L 258.5 495 L 262 494 L 263.5 490 Z " /><path fill="rgb(255,201,0)" stroke="rgb(255,201,0)" stroke-width="1" opacity="0.996078431372549" d="M 254.5 16 Q 260.9 16.1 263 20.5 L 264 22.5 L 264 105.5 L 259.5 111 L 254.5 112 L 249 107.5 L 248 105.5 L 248 22.5 L 252.5 17 L 254.5 16 Z " /><path fill="rgb(255,201,0)" stroke="rgb(255,201,0)" stroke-width="1" opacity="0.996078431372549" d="M 138.5 47 Q 145.8 47.3 148 52.5 L 186 118.5 L 188 125.5 L 184.5 131 L 177.5 132 L 173 128.5 L 133 59.5 L 132 53.5 L 136.5 48 L 138.5 47 Z " /><path fill="rgb(255,201,0)" stroke="rgb(255,201,0)" stroke-width="1" opacity="0.996078431372549" d="M 371.5 47 Q 377.1 47.5 379 51.5 L 380 56.5 L 342 123.5 L 336.5 131 L 329.5 132 L 325 128.5 L 324 122.5 L 364 52.5 L 368.5 48 L 371.5 47 Z " /><path fill="rgb(255,201,0)" stroke="rgb(255,201,0)" stroke-width="1" opacity="0.996078431372549" d="M 202.5 55 Q 209.4 54.1 211 58.5 L 224 105.5 L 224 112.5 Q 222.4 117.9 214.5 117 L 210 113.5 L 196 62.5 L 200.5 56 L 202.5 55 Z " /><path fill="rgb(255,201,0)" stroke="rgb(255,201,0)" stroke-width="1" opacity="0.996078431372549" d="M 305.5 55 Q 313.4 54.1 315 59.5 L 315 66.5 L 304 108.5 L 299.5 116 L 293.5 117 L 288 112.5 L 288 105.5 L 296 78.5 L 298 67.5 L 300 60.5 L 303.5 56 L 305.5 55 Z " /><path fill="rgb(255,201,0)" stroke="rgb(255,201,0)" stroke-width="1" opacity="0.996078431372549" d="M 111.5 107 L 117.5 107 L 156 145.5 Q 157.5 154.5 151.5 156 Q 144.8 157.2 142.5 154 L 109 120.5 Q 105.8 118.2 107 111.5 L 111.5 107 Z " /><path fill="rgb(255,201,0)" stroke="rgb(255,201,0)" stroke-width="1" opacity="0.996078431372549" d="M 394.5 107 Q 402.1 105.9 404 110.5 L 405 117.5 L 369.5 154 Q 367.2 157.2 360.5 156 Q 354.5 154.5 356 145.5 L 358 142 L 359.5 142 L 380 121.5 Q 379.3 119.3 381.5 120 L 384.5 116 Q 386.8 116.8 386 114.5 L 389 113 L 390.5 110 L 394.5 107 Z " /><path fill="rgb(255,201,0)" stroke="rgb(255,201,0)" stroke-width="1" opacity="0.996078431372549" d="M 245.5 128 L 275.5 129 L 304.5 137 Q 329.5 147.5 347 165.5 L 354 173.5 L 352.5 173 L 324.5 163 L 313.5 161 L 304.5 161 L 303.5 160 L 289.5 160 L 288.5 161 L 279.5 161 L 263.5 164 L 241.5 172 Q 215.5 184.5 198 205.5 Q 182.5 223.5 174 248.5 L 169 270.5 L 168 294.5 L 169 295.5 L 169 305.5 L 171 316.5 L 177 335.5 Q 184.6 355.4 198 369.5 L 196.5 369 Q 172 357 156 336.5 Q 140 317 132 289.5 L 128 266.5 L 128 245.5 L 129 244.5 L 129 236.5 L 131 226.5 L 138 205.5 Q 148.3 181.8 165.5 165 Q 182.3 148.3 205.5 138 L 222.5 132 L 245.5 128 Z " /><path fill="rgb(255,201,0)" stroke="rgb(255,201,0)" stroke-width="1" opacity="0.996078431372549" d="M 53.5 132 L 56.5 132 L 64.5 136 L 131 175.5 L 132 182.5 L 128.5 187 L 122.5 188 L 52.5 148 L 48 143.5 L 47 138.5 L 49 134 L 53.5 132 Z " /><path fill="rgb(255,201,0)" stroke="rgb(255,201,0)" stroke-width="1" opacity="0.996078431372549" d="M 59.5 197 L 66.5 197 L 108.5 208 L 116 212.5 L 117 218.5 L 112.5 224 L 105.5 224 L 78.5 216 L 63.5 213 L 56 208.5 L 55 202.5 L 59.5 197 Z " /><path fill="rgb(255,201,0)" stroke="rgb(255,201,0)" stroke-width="1" opacity="0.996078431372549" d="M 22.5 248 L 105.5 248 L 111 252.5 L 112 257.5 L 107.5 263 L 105.5 264 L 22.5 264 L 17 259.5 L 16 254.5 L 20.5 249 L 22.5 248 Z " /><path fill="rgb(255,201,0)" stroke="rgb(255,201,0)" stroke-width="1" opacity="0.996078431372549" d="M 105.5 288 Q 114.3 286.3 116 291.5 L 117 297.5 L 113.5 302 L 67.5 315 L 59.5 315 Q 54.1 313.4 55 305.5 L 58.5 301 L 105.5 288 Z " /><path fill="rgb(255,201,0)" stroke="rgb(255,201,0)" stroke-width="1" opacity="0.996078431372549" d="M 122.5 324 Q 128.9 323.6 131 327.5 L 132 334.5 L 128.5 339 L 59.5 379 L 53.5 380 L 48 375.5 L 47 370.5 L 52.5 364 L 122.5 324 Z " /><path fill="rgb(255,201,0)" stroke="rgb(255,201,0)" stroke-width="1" opacity="0.996078431372549" d="M 145.5 356 Q 154.5 354.5 156 360.5 Q 157.2 367.2 154 369.5 L 120.5 403 Q 118.2 406.2 111.5 405 Q 105.5 403.5 107 394.5 L 109 391 L 110.5 391 L 131 370.5 L 133 367.5 L 137 365 Q 135.9 362.3 138.5 363 L 141.5 359 L 145.5 356 Z " /><path fill="rgb(255,207,0)" stroke="rgb(255,207,0)" stroke-width="1" opacity="1" d="M 455.5 132 L 463 134 L 465 141.5 L 463 146 L 395.5 185 L 389.5 188 L 386.5 188 L 381 184.5 L 380 177.5 L 383.5 173 L 455.5 132 Z " /><path fill="rgb(255,207,0)" stroke="rgb(255,207,0)" stroke-width="1" opacity="1" d="M 289.5 160 L 313.5 161 L 328.5 164 L 350.5 172 L 358 178.5 Q 370.7 194.8 378 216.5 L 383 238.5 L 384 263.5 L 383 264.5 L 383 273.5 L 380 288.5 L 369 316.5 Q 357 338.5 338.5 354 Q 321.6 368.6 298.5 377 L 273.5 383 L 248.5 384 L 247.5 383 L 232.5 382 L 213.5 377 L 199.5 371 L 194 365.5 Q 181.3 349.2 174 327.5 L 169 305.5 L 168 280.5 L 169 279.5 L 169 270.5 L 172 255.5 L 183 227.5 Q 195 205.5 213.5 190 Q 228.6 177.1 248.5 169 L 272.5 162 L 288.5 161 L 289.5 160 Z " /><path fill="rgb(255,207,0)" stroke="rgb(255,207,0)" stroke-width="1" opacity="1" d="M 444.5 197 Q 454 195 456 200.5 L 457 206.5 L 453.5 211 L 406.5 224 L 399.5 224 Q 394.1 222.4 395 214.5 L 398.5 210 L 444.5 197 Z " /><path fill="rgb(255,207,0)" stroke="rgb(255,207,0)" stroke-width="1" opacity="1" d="M 406.5 248 L 489.5 248 L 494 250 L 496 257.5 L 494 262 L 489.5 264 L 406.5 264 L 402 262 L 400 254.5 L 402 250 L 406.5 248 Z " /><path fill="rgb(255,207,0)" stroke="rgb(255,207,0)" stroke-width="1" opacity="1" d="M 399.5 288 L 406.5 288 L 429.5 295 L 444.5 298 L 451.5 300 L 456 303.5 L 457 309.5 L 452.5 315 L 449.5 316 L 403.5 304 L 396 299.5 L 395 293.5 L 399.5 288 Z " /><path fill="rgb(255,207,0)" stroke="rgb(255,207,0)" stroke-width="1" opacity="1" d="M 386.5 324 L 389.5 324 L 395.5 327 L 459.5 364 L 464 368.5 L 465 372.5 L 460.5 379 L 455.5 380 L 388.5 342 L 381 336.5 L 380 329.5 L 383.5 325 L 386.5 324 Z " /><path fill="rgb(255,207,0)" stroke="rgb(255,207,0)" stroke-width="1" opacity="1" d="M 360.5 356 L 366.5 356 L 405 394.5 Q 406.5 403.5 400.5 405 Q 393.8 406.2 391.5 403 L 358 369.5 Q 354.8 367.2 356 360.5 L 360.5 356 Z " /><path fill="rgb(255,207,0)" stroke="rgb(255,207,0)" stroke-width="1" opacity="1" d="M 177.5 380 Q 185.1 378.9 187 383.5 L 188 389.5 L 148 459.5 L 143.5 464 L 139.5 465 L 133 460.5 L 132 455.5 L 170 388.5 L 175.5 381 L 177.5 380 Z " /><path fill="rgb(255,207,0)" stroke="rgb(255,207,0)" stroke-width="1" opacity="1" d="M 329.5 380 Q 337.1 378.9 339 383.5 L 379 452.5 L 380 458.5 L 375.5 464 L 371.5 465 L 364 459.5 L 326 393.5 Q 323.3 391.2 324 385.5 L 327.5 381 L 329.5 380 Z " /><path fill="rgb(255,207,0)" stroke="rgb(255,207,0)" stroke-width="1" opacity="1" d="M 214.5 395 Q 222.4 394.1 224 399.5 L 224 406.5 L 216 433.5 L 214 444.5 L 212 451.5 L 208.5 456 L 202.5 457 L 198 455 L 196 448.5 L 208 403.5 L 212.5 396 L 214.5 395 Z " /><path fill="rgb(255,207,0)" stroke="rgb(255,207,0)" stroke-width="1" opacity="1" d="M 293.5 395 Q 300.4 394.1 302 398.5 L 315 445.5 L 315 452.5 Q 313.4 457.9 305.5 457 L 301 453.5 L 288 406.5 L 288 399.5 L 293.5 395 Z " /><path fill="rgb(255,207,0)" stroke="rgb(255,207,0)" stroke-width="1" opacity="1" d="M 254.5 400 L 262 402 L 264 406.5 L 264 489.5 L 262 494 L 254.5 496 L 250 494 L 248 489.5 L 248 406.5 L 250 402 L 254.5 400 Z " /></svg>